<svg xmlns="http://www.w3.org/2000/svg" id="export" class="canvas" preserveAspectRatio="xMidYMid meet" style="position: absolute; margin: 0px;" width="125" height="952"><rect id="background" fill="#fff" pointer-events="all" width="125" height="952"/><g id="origin" transform="translate(5.6412498474121096, 5.6412498474121096) scale(1)"><g id="clusters" class="clusters"/><g id="edge-paths" class="edge-paths"><defs><marker id="arrowhead-vee" viewBox="0 0 10 10" refX="9" refY="5" markerUnits="strokeWidth" markerWidth="8" markerHeight="6" orient="auto" style="fill: rgb(0, 0, 0);"><path d="M 0 0 L 10 5 L 0 10 L 4 5 z" style="stroke-width: 1px;"/></marker><marker id="arrowhead-vee-select" viewBox="0 0 10 10" refX="9" refY="5" markerUnits="strokeWidth" markerWidth="8" markerHeight="6" orient="auto" style="fill: rgb(238, 0, 0);"><path d="M 0 0 L 10 5 L 0 10 L 4 5 z" style="stroke-width: 1px;"/></marker></defs><path id="edge-Conv_5(Conv2d)/dequantize" class="edge-path" d="M61.63791785862412,209.3199987411499L65.5024315170643,212.8033320903778C69.36694517550445,216.2866654396057,77.0959724923848,223.25333213806152,80.96048615082496,230.2883322238922C84.82499980926514,237.3233323097229,84.82499980926514,244.42666578292847,84.82499980926514,247.97833251953125L84.82499980926514,251.52999925613403" style="stroke: rgb(0, 0, 0); stroke-width: 1px; fill: none; marker-end: url(&quot;#arrowhead-vee&quot;);"/><path id="edge-Conv_5(Conv2d)/dequantize" class="edge-path" d="M38.36208214137588,209.3199987411499L34.49756848293571,212.8033320903778C30.63305482449554,216.2866654396057,22.9040275076152,223.25333213806152,19.039513849175034,232.03666551907858C15.175000190734863,240.8199989000956,15.175000190734863,251.41999896367392,15.175000190734863,262.0199990272522C15.175000190734863,272.6199990908305,15.175000190734863,283.21999915440875,19.039513849175034,292.00333253542584C22.9040275076152,300.78666591644287,30.63305482449554,307.7533326148987,34.49756848293571,311.2366659641266L38.36208214137588,314.7199993133545" style="stroke: rgb(0, 0, 0); stroke-width: 1px; fill: none; marker-end: url(&quot;#arrowhead-vee&quot;);"/><path id="edge-Softmax_10.max(Softmax)" class="edge-path" d="M84.82499980926514,272.50999879837036L84.82499980926514,276.06166553497314C84.82499980926514,279.6133322715759,84.82499980926514,286.7166657447815,80.96048615082496,293.7516658306122C77.0959724923848,300.78666591644287,69.36694517550445,307.7533326148987,65.5024315170643,311.2366659641266L61.63791785862412,314.7199993133545" style="stroke: rgb(0, 0, 0); stroke-width: 1px; fill: none; marker-end: url(&quot;#arrowhead-vee&quot;);"/><path id="edge-Softmax_10.sub(Softmax)" class="edge-path" d="M50,335.6999988555908L50,339.1833322048187C50,342.66666555404663,50,349.63333225250244,50,356.59999895095825C50,363.56666564941406,50,370.5333323478699,50,374.0166656970978L50,377.4999990463257" style="stroke: rgb(0, 0, 0); stroke-width: 1px; fill: none; marker-end: url(&quot;#arrowhead-vee&quot;);"/><path id="edge-output_F/dequantize" class="edge-path" d="M61.63791785862412,543.4250001907349L65.5024315170643,546.9083335399628C69.36694517550445,550.3916668891907,77.0959724923848,557.3583335876465,80.96048615082496,564.3933336734772C84.82499980926514,571.4283337593079,84.82499980926514,578.5316672325134,84.82499980926514,582.0833339691162L84.82499980926514,585.635000705719" style="stroke: rgb(0, 0, 0); stroke-width: 1px; fill: none; marker-end: url(&quot;#arrowhead-vee&quot;);"/><path id="edge-output_F/dequantize" class="edge-path" d="M38.36208214137588,543.4250001907349L34.49756848293571,546.9083335399628C30.63305482449554,550.3916668891907,22.9040275076152,557.3583335876465,19.039513849175034,566.1416669686636C15.175000190734863,574.9250003496805,15.175000190734863,585.5250004132589,15.175000190734863,596.1250004768372C15.175000190734863,606.7250005404154,15.175000190734863,617.3250006039938,19.039513849175034,626.1083339850107C22.9040275076152,634.8916673660278,30.63305482449554,641.8583340644836,34.49756848293571,645.3416674137115L38.36208214137588,648.8250007629395" style="stroke: rgb(0, 0, 0); stroke-width: 1px; fill: none; marker-end: url(&quot;#arrowhead-vee&quot;);"/><path id="edge-Softmax_10.sum(Softmax)" class="edge-path" d="M84.82499980926514,606.6150002479553L84.82499980926514,610.1666669845581C84.82499980926514,613.7183337211609,84.82499980926514,620.8216671943665,80.96048615082496,627.8566672801971C77.0959724923848,634.8916673660278,69.36694517550445,641.8583340644836,65.5024315170643,645.3416674137115L61.63791785862412,648.8250007629395" style="stroke: rgb(0, 0, 0); stroke-width: 1px; fill: none; marker-end: url(&quot;#arrowhead-vee&quot;);"/><path id="edge-Softmax_10.div(Softmax)" class="edge-path" d="M50,669.8050003051758L50,673.2883336544037C50,676.7716670036316,50,683.7383337020874,50,690.7050004005432C50,697.671667098999,50,704.6383337974548,50,708.1216671466827L50,711.6050004959106" style="stroke: rgb(0, 0, 0); stroke-width: 1px; fill: none; marker-end: url(&quot;#arrowhead-vee&quot;);"/><path id="edge-Softmax_10.sub(Softmax)/quantize" class="edge-path" d="M50,398.479998588562L50,401.9633319377899C50,405.4466652870178,50,412.41333198547363,50,419.37999868392944C50,426.34666538238525,50,433.31333208084106,50,436.79666543006897L50,440.2799987792969" style="stroke: rgb(0, 0, 0); stroke-width: 1px; fill: none; marker-end: url(&quot;#arrowhead-vee&quot;);"/><path id="edge-output_F" class="edge-path" d="M50,480.6450004577637L50,484.1283338069916C50,487.6116671562195,50,494.5783338546753,50,501.5450005531311C50,508.5116672515869,50,515.4783339500427,50,518.9616672992706L50,522.4450006484985" style="stroke: rgb(0, 0, 0); stroke-width: 1px; fill: none; marker-end: url(&quot;#arrowhead-vee&quot;);"/><path id="edge-Softmax_10.div(Softmax)/quantize" class="edge-path" d="M50,732.585000038147L50,736.0683333873749C50,739.5516667366028,50,746.5183334350586,50,753.4850001335144C50,760.4516668319702,50,767.418333530426,50,770.9016668796539L50,774.3850002288818" style="stroke: rgb(0, 0, 0); stroke-width: 1px; fill: none; marker-end: url(&quot;#arrowhead-vee&quot;);"/><path id="edge-output_F_0" class="edge-path" d="M50,814.7500019073486L50,818.2333352565765C50,821.7166686058044,50,828.6833353042603,50,835.6500020027161C50,842.6166687011719,50,849.5833353996277,50,853.0666687488556L50,856.5500020980835" style="stroke: rgb(0, 0, 0); stroke-width: 1px; fill: none; marker-end: url(&quot;#arrowhead-vee&quot;);"/><path id="edge-digit" class="edge-path" d="M50,877.5300016403198L50,881.0133349895477C50,884.4966683387756,50,891.4633350372314,50,898.4300017356873C50,905.3966684341431,50,912.3633351325989,50,915.8466684818268L50,919.3300018310547" style="stroke: rgb(0, 0, 0); stroke-width: 1px; fill: none; marker-end: url(&quot;#arrowhead-vee&quot;);"/><path id="edge-k210_0" class="edge-path" d="M50,83.75999927520752L50,87.24333262443542C50,90.72666597366333,50,97.69333267211914,50,104.65999937057495C50,111.62666606903076,50,118.59333276748657,50,122.07666611671448L50,125.55999946594238" style="stroke: rgb(0, 0, 0); stroke-width: 1px; fill: none; marker-end: url(&quot;#arrowhead-vee&quot;);"/><path id="edge-Flatten_9(Flatten)" class="edge-path" d="M50,146.5399990081787L50,150.02333235740662C50,153.50666570663452,50,160.47333240509033,50,167.43999910354614C50,174.40666580200195,50,181.37333250045776,50,184.85666584968567L50,188.33999919891357" style="stroke: rgb(0, 0, 0); stroke-width: 1px; fill: none; marker-end: url(&quot;#arrowhead-vee&quot;);"/><path id="edge-img" class="edge-path" d="M50,20.979999542236328L50,24.463332891464233C50,27.94666624069214,50,34.91333293914795,50,41.87999963760376C50,48.84666633605957,50,55.81333303451538,50,59.296666383743286L50,62.77999973297119" style="stroke: rgb(0, 0, 0); stroke-width: 1px; fill: none; marker-end: url(&quot;#arrowhead-vee&quot;);"/></g><g id="edge-labels" class="edge-labels"><g style="opacity: 1;" class="edge-label" id="edge-label-edge-Conv_5(Conv2d)/dequantize" transform="translate(100.82499980926514,230.21999883651733)"><g transform="translate(-11,-5.900000095367432)"><text style="font-family: -apple-system, BlinkMacSystemFont, &quot;Segoe WPC&quot;, &quot;Segoe UI&quot;, &quot;Ubuntu&quot;, &quot;Droid Sans&quot;, sans-serif, &quot;PingFang SC&quot;; font-size: 10px;"><tspan xml:space="preserve" dy="1em" x="1">1×10</tspan></text></g></g><g style="opacity: 1;" class="edge-label" id="edge-label-edge-Conv_5(Conv2d)/dequantize" transform="translate(31.175000190734863,262.0199990272522)"><g transform="translate(-11,-5.900000095367432)"><text style="font-family: -apple-system, BlinkMacSystemFont, &quot;Segoe WPC&quot;, &quot;Segoe UI&quot;, &quot;Ubuntu&quot;, &quot;Droid Sans&quot;, sans-serif, &quot;PingFang SC&quot;; font-size: 10px;"><tspan xml:space="preserve" dy="1em" x="1">1×10</tspan></text></g></g><g style="opacity: 1;" class="edge-label" id="edge-label-edge-Softmax_10.max(Softmax)" transform="translate(98.07499980926514,293.81999921798706)"><g transform="translate(-8.25,-5.900000095367432)"><text style="font-family: -apple-system, BlinkMacSystemFont, &quot;Segoe WPC&quot;, &quot;Segoe UI&quot;, &quot;Ubuntu&quot;, &quot;Droid Sans&quot;, sans-serif, &quot;PingFang SC&quot;; font-size: 10px;"><tspan xml:space="preserve" dy="1em" x="1">1×1</tspan></text></g></g><g style="opacity: 1;" class="edge-label" id="edge-label-edge-Softmax_10.sub(Softmax)" transform="translate(66,356.59999895095825)"><g transform="translate(-11,-5.900000095367432)"><text style="font-family: -apple-system, BlinkMacSystemFont, &quot;Segoe WPC&quot;, &quot;Segoe UI&quot;, &quot;Ubuntu&quot;, &quot;Droid Sans&quot;, sans-serif, &quot;PingFang SC&quot;; font-size: 10px;"><tspan xml:space="preserve" dy="1em" x="1">1×10</tspan></text></g></g><g style="opacity: 1;" class="edge-label" id="edge-label-edge-output_F/dequantize" transform="translate(100.82499980926514,564.3250002861023)"><g transform="translate(-11,-5.900000095367432)"><text style="font-family: -apple-system, BlinkMacSystemFont, &quot;Segoe WPC&quot;, &quot;Segoe UI&quot;, &quot;Ubuntu&quot;, &quot;Droid Sans&quot;, sans-serif, &quot;PingFang SC&quot;; font-size: 10px;"><tspan xml:space="preserve" dy="1em" x="1">1×10</tspan></text></g></g><g style="opacity: 1;" class="edge-label" id="edge-label-edge-output_F/dequantize" transform="translate(31.175000190734863,596.1250004768372)"><g transform="translate(-11,-5.900000095367432)"><text style="font-family: -apple-system, BlinkMacSystemFont, &quot;Segoe WPC&quot;, &quot;Segoe UI&quot;, &quot;Ubuntu&quot;, &quot;Droid Sans&quot;, sans-serif, &quot;PingFang SC&quot;; font-size: 10px;"><tspan xml:space="preserve" dy="1em" x="1">1×10</tspan></text></g></g><g style="opacity: 1;" class="edge-label" id="edge-label-edge-Softmax_10.sum(Softmax)" transform="translate(98.07499980926514,627.925000667572)"><g transform="translate(-8.25,-5.900000095367432)"><text style="font-family: -apple-system, BlinkMacSystemFont, &quot;Segoe WPC&quot;, &quot;Segoe UI&quot;, &quot;Ubuntu&quot;, &quot;Droid Sans&quot;, sans-serif, &quot;PingFang SC&quot;; font-size: 10px;"><tspan xml:space="preserve" dy="1em" x="1">1×1</tspan></text></g></g><g style="opacity: 1;" class="edge-label" id="edge-label-edge-Softmax_10.div(Softmax)" transform="translate(66,690.7050004005432)"><g transform="translate(-11,-5.900000095367432)"><text style="font-family: -apple-system, BlinkMacSystemFont, &quot;Segoe WPC&quot;, &quot;Segoe UI&quot;, &quot;Ubuntu&quot;, &quot;Droid Sans&quot;, sans-serif, &quot;PingFang SC&quot;; font-size: 10px;"><tspan xml:space="preserve" dy="1em" x="1">1×10</tspan></text></g></g><g style="opacity: 1;" class="edge-label" id="edge-label-edge-Softmax_10.sub(Softmax)/quantize" transform="translate(66,419.37999868392944)"><g transform="translate(-11,-5.900000095367432)"><text style="font-family: -apple-system, BlinkMacSystemFont, &quot;Segoe WPC&quot;, &quot;Segoe UI&quot;, &quot;Ubuntu&quot;, &quot;Droid Sans&quot;, sans-serif, &quot;PingFang SC&quot;; font-size: 10px;"><tspan xml:space="preserve" dy="1em" x="1">1×10</tspan></text></g></g><g style="opacity: 1;" class="edge-label" id="edge-label-edge-output_F" transform="translate(66,501.5450005531311)"><g transform="translate(-11,-5.900000095367432)"><text style="font-family: -apple-system, BlinkMacSystemFont, &quot;Segoe WPC&quot;, &quot;Segoe UI&quot;, &quot;Ubuntu&quot;, &quot;Droid Sans&quot;, sans-serif, &quot;PingFang SC&quot;; font-size: 10px;"><tspan xml:space="preserve" dy="1em" x="1">1×10</tspan></text></g></g><g style="opacity: 1;" class="edge-label" id="edge-label-edge-Softmax_10.div(Softmax)/quantize" transform="translate(66,753.4850001335144)"><g transform="translate(-11,-5.900000095367432)"><text style="font-family: -apple-system, BlinkMacSystemFont, &quot;Segoe WPC&quot;, &quot;Segoe UI&quot;, &quot;Ubuntu&quot;, &quot;Droid Sans&quot;, sans-serif, &quot;PingFang SC&quot;; font-size: 10px;"><tspan xml:space="preserve" dy="1em" x="1">1×10</tspan></text></g></g><g style="opacity: 1;" class="edge-label" id="edge-label-edge-output_F_0" transform="translate(66,835.6500020027161)"><g transform="translate(-11,-5.900000095367432)"><text style="font-family: -apple-system, BlinkMacSystemFont, &quot;Segoe WPC&quot;, &quot;Segoe UI&quot;, &quot;Ubuntu&quot;, &quot;Droid Sans&quot;, sans-serif, &quot;PingFang SC&quot;; font-size: 10px;"><tspan xml:space="preserve" dy="1em" x="1">1×10</tspan></text></g></g><g style="opacity: 1;" class="edge-label" id="edge-label-edge-digit" transform="translate(66,898.4300017356873)"><g transform="translate(-11,-5.900000095367432)"><text style="font-family: -apple-system, BlinkMacSystemFont, &quot;Segoe WPC&quot;, &quot;Segoe UI&quot;, &quot;Ubuntu&quot;, &quot;Droid Sans&quot;, sans-serif, &quot;PingFang SC&quot;; font-size: 10px;"><tspan xml:space="preserve" dy="1em" x="1">1×10</tspan></text></g></g><g style="opacity: 1;" class="edge-label" id="edge-label-edge-k210_0" transform="translate(77,104.65999937057495)"><g transform="translate(-22,-5.900000095367432)"><text style="font-family: -apple-system, BlinkMacSystemFont, &quot;Segoe WPC&quot;, &quot;Segoe UI&quot;, &quot;Ubuntu&quot;, &quot;Droid Sans&quot;, sans-serif, &quot;PingFang SC&quot;; font-size: 10px;"><tspan xml:space="preserve" dy="1em" x="1">1×10×1×1</tspan></text></g></g><g style="opacity: 1;" class="edge-label" id="edge-label-edge-Flatten_9(Flatten)" transform="translate(66,167.43999910354614)"><g transform="translate(-11,-5.900000095367432)"><text style="font-family: -apple-system, BlinkMacSystemFont, &quot;Segoe WPC&quot;, &quot;Segoe UI&quot;, &quot;Ubuntu&quot;, &quot;Droid Sans&quot;, sans-serif, &quot;PingFang SC&quot;; font-size: 10px;"><tspan xml:space="preserve" dy="1em" x="1">1×10</tspan></text></g></g><g style="opacity: 1;" class="edge-label" id="edge-label-edge-img" transform="translate(79.75,41.87999963760376)"><g transform="translate(-24.75,-5.900000095367432)"><text style="font-family: -apple-system, BlinkMacSystemFont, &quot;Segoe WPC&quot;, &quot;Segoe UI&quot;, &quot;Ubuntu&quot;, &quot;Droid Sans&quot;, sans-serif, &quot;PingFang SC&quot;; font-size: 10px;"><tspan xml:space="preserve" dy="1em" x="1">1×1×28×28</tspan></text></g></g></g><g id="nodes" class="nodes"><g id="node-name-Softmax_10.max(Softmax)" class="node graph-node" style="opacity: 1;" transform="translate(84.82499980926514,262.0199990272522)"><g transform="translate(-25.149999618530273,-10.489999771118164)"><g class="node-item node-item-type" transform="translate(0,0)"><path d="M5,0h40.29999923706055a5,5 0 0 1 5,5v10.980000495910645a5,5 0 0 1 -5,5h-40.29999923706055a5,5 0 0 1 -5,-5v-10.980000495910645a5,5 0 0 1 5,-5z" style="stroke: rgb(0, 0, 0); fill: rgb(0, 0, 0); stroke-width: 0px;"/><text x="6" y="14.28499984741211" style="font-family: -apple-system, BlinkMacSystemFont, &quot;Segoe WPC&quot;, &quot;Segoe UI&quot;, &quot;Ubuntu&quot;, &quot;Droid Sans&quot;, sans-serif, &quot;PingFang SC&quot;; font-size: 11px; text-rendering: geometricprecision; fill: rgb(255, 255, 255);">Reduce</text><title>Softmax_10.max(Softmax)</title></g><path class="node border" d="M5,0h40.29999923706055a5,5 0 0 1 5,5v10.980000495910645a5,5 0 0 1 -5,5h-40.29999923706055a5,5 0 0 1 -5,-5v-10.980000495910645a5,5 0 0 1 5,-5z" style="stroke: rgb(51, 51, 51); fill: none; stroke-width: 1px;"/></g></g><g id="node-name-Softmax_10.sub(Softmax)" class="node graph-node" style="opacity: 1;" transform="translate(50,325.20999908447266)"><g transform="translate(-22.895000457763672,-10.489999771118164)"><g class="node-item node-item-type" transform="translate(0,0)"><path d="M5,0h35.790000915527344a5,5 0 0 1 5,5v10.980000495910645a5,5 0 0 1 -5,5h-35.790000915527344a5,5 0 0 1 -5,-5v-10.980000495910645a5,5 0 0 1 5,-5z" style="stroke: rgb(0, 0, 0); fill: rgb(0, 0, 0); stroke-width: 0px;"/><text x="6" y="14.28499984741211" style="font-family: -apple-system, BlinkMacSystemFont, &quot;Segoe WPC&quot;, &quot;Segoe UI&quot;, &quot;Ubuntu&quot;, &quot;Droid Sans&quot;, sans-serif, &quot;PingFang SC&quot;; font-size: 11px; text-rendering: geometricprecision; fill: rgb(255, 255, 255);">Binary</text><title>Softmax_10.sub(Softmax)</title></g><path class="node border" d="M5,0h35.790000915527344a5,5 0 0 1 5,5v10.980000495910645a5,5 0 0 1 -5,5h-35.790000915527344a5,5 0 0 1 -5,-5v-10.980000495910645a5,5 0 0 1 5,-5z" style="stroke: rgb(51, 51, 51); fill: none; stroke-width: 1px;"/></g></g><g id="node-name-Softmax_10.sum(Softmax)" class="node graph-node" style="opacity: 1;" transform="translate(84.82499980926514,596.1250004768372)"><g transform="translate(-25.149999618530273,-10.489999771118164)"><g class="node-item node-item-type" transform="translate(0,0)"><path d="M5,0h40.29999923706055a5,5 0 0 1 5,5v10.980000495910645a5,5 0 0 1 -5,5h-40.29999923706055a5,5 0 0 1 -5,-5v-10.980000495910645a5,5 0 0 1 5,-5z" style="stroke: rgb(0, 0, 0); fill: rgb(0, 0, 0); stroke-width: 0px;"/><text x="6" y="14.28499984741211" style="font-family: -apple-system, BlinkMacSystemFont, &quot;Segoe WPC&quot;, &quot;Segoe UI&quot;, &quot;Ubuntu&quot;, &quot;Droid Sans&quot;, sans-serif, &quot;PingFang SC&quot;; font-size: 11px; text-rendering: geometricprecision; fill: rgb(255, 255, 255);">Reduce</text><title>Softmax_10.sum(Softmax)</title></g><path class="node border" d="M5,0h40.29999923706055a5,5 0 0 1 5,5v10.980000495910645a5,5 0 0 1 -5,5h-40.29999923706055a5,5 0 0 1 -5,-5v-10.980000495910645a5,5 0 0 1 5,-5z" style="stroke: rgb(51, 51, 51); fill: none; stroke-width: 1px;"/></g></g><g id="node-name-Softmax_10.div(Softmax)" class="node graph-node" style="opacity: 1;" transform="translate(50,659.3150005340576)"><g transform="translate(-22.895000457763672,-10.489999771118164)"><g class="node-item node-item-type" transform="translate(0,0)"><path d="M5,0h35.790000915527344a5,5 0 0 1 5,5v10.980000495910645a5,5 0 0 1 -5,5h-35.790000915527344a5,5 0 0 1 -5,-5v-10.980000495910645a5,5 0 0 1 5,-5z" style="stroke: rgb(0, 0, 0); fill: rgb(0, 0, 0); stroke-width: 0px;"/><text x="6" y="14.28499984741211" style="font-family: -apple-system, BlinkMacSystemFont, &quot;Segoe WPC&quot;, &quot;Segoe UI&quot;, &quot;Ubuntu&quot;, &quot;Droid Sans&quot;, sans-serif, &quot;PingFang SC&quot;; font-size: 11px; text-rendering: geometricprecision; fill: rgb(255, 255, 255);">Binary</text><title>Softmax_10.div(Softmax)</title></g><path class="node border" d="M5,0h35.790000915527344a5,5 0 0 1 5,5v10.980000495910645a5,5 0 0 1 -5,5h-35.790000915527344a5,5 0 0 1 -5,-5v-10.980000495910645a5,5 0 0 1 5,-5z" style="stroke: rgb(51, 51, 51); fill: none; stroke-width: 1px;"/></g></g><g id="node-name-Softmax_10.sub(Softmax)/quantize" class="node graph-node" style="opacity: 1;" transform="translate(50,387.98999881744385)"><g transform="translate(-29.137500762939453,-10.489999771118164)"><g class="node-item node-item-type" transform="translate(0,0)"><path d="M5,0h48.275001525878906a5,5 0 0 1 5,5v10.980000495910645a5,5 0 0 1 -5,5h-48.275001525878906a5,5 0 0 1 -5,-5v-10.980000495910645a5,5 0 0 1 5,-5z" style="stroke: rgb(0, 0, 0); fill: rgb(0, 0, 0); stroke-width: 0px;"/><text x="6" y="14.28499984741211" style="font-family: -apple-system, BlinkMacSystemFont, &quot;Segoe WPC&quot;, &quot;Segoe UI&quot;, &quot;Ubuntu&quot;, &quot;Droid Sans&quot;, sans-serif, &quot;PingFang SC&quot;; font-size: 11px; text-rendering: geometricprecision; fill: rgb(255, 255, 255);">Quantize</text><title>Softmax_10.sub(Softmax)/quantize</title></g><path class="node border" d="M5,0h48.275001525878906a5,5 0 0 1 5,5v10.980000495910645a5,5 0 0 1 -5,5h-48.275001525878906a5,5 0 0 1 -5,-5v-10.980000495910645a5,5 0 0 1 5,-5z" style="stroke: rgb(51, 51, 51); fill: none; stroke-width: 1px;"/></g></g><g id="node-name-output_F" class="node graph-node" style="opacity: 1;" transform="translate(50,460.4624996185303)"><g transform="translate(-50,-20.1825008392334)"><g class="node-item node-item-type" transform="translate(0,0)"><path d="M5,0h90a5,5 0 0 1 5,5v15.980000495910645a0,0 0 0 1 0,0h-100a0,0 0 0 1 0,0v-15.980000495910645a5,5 0 0 1 5,-5z" style="stroke: rgb(0, 0, 0); fill: rgb(0, 0, 0); stroke-width: 0px;"/><text x="6" y="14.28499984741211" style="font-family: -apple-system, BlinkMacSystemFont, &quot;Segoe WPC&quot;, &quot;Segoe UI&quot;, &quot;Ubuntu&quot;, &quot;Droid Sans&quot;, sans-serif, &quot;PingFang SC&quot;; font-size: 11px; text-rendering: geometricprecision; fill: rgb(255, 255, 255);">TableLookup1D</text><title>output_F</title></g><g class="node-attribute" transform="translate(0,20.980000495910645)"><path d="M0,0h100a0,0 0 0 1 0,0v14.385000228881836a5,5 0 0 1 -5,5h-90a5,5 0 0 1 -5,-5v-14.385000228881836a0,0 0 0 1 0,0z" style="stroke: rgb(0, 0, 0); fill: rgb(255, 255, 255); stroke-width: 0px;"/><text id="initializer-output_F/table" xml:space="preserve" x="6" y="12.6850004196167" style="font-family: -apple-system, BlinkMacSystemFont, &quot;Segoe WPC&quot;, &quot;Segoe UI&quot;, &quot;Ubuntu&quot;, &quot;Droid Sans&quot;, sans-serif, &quot;PingFang SC&quot;; font-size: 9px; font-weight: normal; text-rendering: geometricprecision;"><title>uint8[256]</title><tspan style="font-weight: bold;">1</tspan><tspan>〈256〉</tspan></text><line class="node" x1="0" x2="100" y1="0" y2="0" style="stroke: rgb(51, 51, 51); fill: none; stroke-width: 1px;"/></g><path class="node border" d="M5,0h90a5,5 0 0 1 5,5v30.36500072479248a5,5 0 0 1 -5,5h-90a5,5 0 0 1 -5,-5v-30.36500072479248a5,5 0 0 1 5,-5z" style="stroke: rgb(51, 51, 51); fill: none; stroke-width: 1px;"/></g></g><g id="node-name-output_F/dequantize" class="node graph-node" style="opacity: 1;" transform="translate(50,532.9350004196167)"><g transform="translate(-34.99500274658203,-10.489999771118164)"><g class="node-item node-item-type" transform="translate(0,0)"><path d="M5,0h59.9900016784668a5,5 0 0 1 5,5v10.980000495910645a5,5 0 0 1 -5,5h-59.9900016784668a5,5 0 0 1 -5,-5v-10.980000495910645a5,5 0 0 1 5,-5z" style="stroke: rgb(0, 0, 0); fill: rgb(0, 0, 0); stroke-width: 0px;"/><text x="6" y="14.28499984741211" style="font-family: -apple-system, BlinkMacSystemFont, &quot;Segoe WPC&quot;, &quot;Segoe UI&quot;, &quot;Ubuntu&quot;, &quot;Droid Sans&quot;, sans-serif, &quot;PingFang SC&quot;; font-size: 11px; text-rendering: geometricprecision; fill: rgb(255, 255, 255);">Dequantize</text><title>output_F/dequantize</title></g><path class="node border" d="M5,0h59.9900016784668a5,5 0 0 1 5,5v10.980000495910645a5,5 0 0 1 -5,5h-59.9900016784668a5,5 0 0 1 -5,-5v-10.980000495910645a5,5 0 0 1 5,-5z" style="stroke: rgb(51, 51, 51); fill: none; stroke-width: 1px;"/></g></g><g id="node-name-Softmax_10.div(Softmax)/quantize" class="node graph-node" style="opacity: 1;" transform="translate(50,722.0950002670288)"><g transform="translate(-29.137500762939453,-10.489999771118164)"><g class="node-item node-item-type" transform="translate(0,0)"><path d="M5,0h48.275001525878906a5,5 0 0 1 5,5v10.980000495910645a5,5 0 0 1 -5,5h-48.275001525878906a5,5 0 0 1 -5,-5v-10.980000495910645a5,5 0 0 1 5,-5z" style="stroke: rgb(0, 0, 0); fill: rgb(0, 0, 0); stroke-width: 0px;"/><text x="6" y="14.28499984741211" style="font-family: -apple-system, BlinkMacSystemFont, &quot;Segoe WPC&quot;, &quot;Segoe UI&quot;, &quot;Ubuntu&quot;, &quot;Droid Sans&quot;, sans-serif, &quot;PingFang SC&quot;; font-size: 11px; text-rendering: geometricprecision; fill: rgb(255, 255, 255);">Quantize</text><title>Softmax_10.div(Softmax)/quantize</title></g><path class="node border" d="M5,0h48.275001525878906a5,5 0 0 1 5,5v10.980000495910645a5,5 0 0 1 -5,5h-48.275001525878906a5,5 0 0 1 -5,-5v-10.980000495910645a5,5 0 0 1 5,-5z" style="stroke: rgb(51, 51, 51); fill: none; stroke-width: 1px;"/></g></g><g id="node-name-output_F_0" class="node graph-node" style="opacity: 1;" transform="translate(50,794.5675010681152)"><g transform="translate(-50,-20.1825008392334)"><g class="node-item node-item-type" transform="translate(0,0)"><path d="M5,0h90a5,5 0 0 1 5,5v15.980000495910645a0,0 0 0 1 0,0h-100a0,0 0 0 1 0,0v-15.980000495910645a5,5 0 0 1 5,-5z" style="stroke: rgb(0, 0, 0); fill: rgb(0, 0, 0); stroke-width: 0px;"/><text x="6" y="14.28499984741211" style="font-family: -apple-system, BlinkMacSystemFont, &quot;Segoe WPC&quot;, &quot;Segoe UI&quot;, &quot;Ubuntu&quot;, &quot;Droid Sans&quot;, sans-serif, &quot;PingFang SC&quot;; font-size: 11px; text-rendering: geometricprecision; fill: rgb(255, 255, 255);">TableLookup1D</text><title>output_F_0</title></g><g class="node-attribute" transform="translate(0,20.980000495910645)"><path d="M0,0h100a0,0 0 0 1 0,0v14.385000228881836a5,5 0 0 1 -5,5h-90a5,5 0 0 1 -5,-5v-14.385000228881836a0,0 0 0 1 0,0z" style="stroke: rgb(0, 0, 0); fill: rgb(255, 255, 255); stroke-width: 0px;"/><text id="initializer-output_F_0/table" xml:space="preserve" x="6" y="12.6850004196167" style="font-family: -apple-system, BlinkMacSystemFont, &quot;Segoe WPC&quot;, &quot;Segoe UI&quot;, &quot;Ubuntu&quot;, &quot;Droid Sans&quot;, sans-serif, &quot;PingFang SC&quot;; font-size: 9px; font-weight: normal; text-rendering: geometricprecision;"><title>uint8[256]</title><tspan style="font-weight: bold;">1</tspan><tspan>〈256〉</tspan></text><line class="node" x1="0" x2="100" y1="0" y2="0" style="stroke: rgb(51, 51, 51); fill: none; stroke-width: 1px;"/></g><path class="node border" d="M5,0h90a5,5 0 0 1 5,5v30.36500072479248a5,5 0 0 1 -5,5h-90a5,5 0 0 1 -5,-5v-30.36500072479248a5,5 0 0 1 5,-5z" style="stroke: rgb(51, 51, 51); fill: none; stroke-width: 1px;"/></g></g><g id="node-name-output_F_0/dequantize" class="node graph-node" style="opacity: 1;" transform="translate(50,867.0400018692017)"><g transform="translate(-34.99500274658203,-10.489999771118164)"><g class="node-item node-item-type" transform="translate(0,0)"><path d="M5,0h59.9900016784668a5,5 0 0 1 5,5v10.980000495910645a5,5 0 0 1 -5,5h-59.9900016784668a5,5 0 0 1 -5,-5v-10.980000495910645a5,5 0 0 1 5,-5z" style="stroke: rgb(0, 0, 0); fill: rgb(0, 0, 0); stroke-width: 0px;"/><text x="6" y="14.28499984741211" style="font-family: -apple-system, BlinkMacSystemFont, &quot;Segoe WPC&quot;, &quot;Segoe UI&quot;, &quot;Ubuntu&quot;, &quot;Droid Sans&quot;, sans-serif, &quot;PingFang SC&quot;; font-size: 11px; text-rendering: geometricprecision; fill: rgb(255, 255, 255);">Dequantize</text><title>output_F_0/dequantize</title></g><path class="node border" d="M5,0h59.9900016784668a5,5 0 0 1 5,5v10.980000495910645a5,5 0 0 1 -5,5h-59.9900016784668a5,5 0 0 1 -5,-5v-10.980000495910645a5,5 0 0 1 5,-5z" style="stroke: rgb(51, 51, 51); fill: none; stroke-width: 1px;"/></g></g><g id="node-name-Flatten_9(Flatten)" class="node graph-node" style="opacity: 1;" transform="translate(50,136.04999923706055)"><g transform="translate(-23.52750015258789,-10.489999771118164)"><g class="node-item node-item-type" transform="translate(0,0)"><path d="M5,0h37.05500030517578a5,5 0 0 1 5,5v10.980000495910645a5,5 0 0 1 -5,5h-37.05500030517578a5,5 0 0 1 -5,-5v-10.980000495910645a5,5 0 0 1 5,-5z" style="stroke: rgb(0, 0, 0); fill: rgb(0, 0, 0); stroke-width: 0px;"/><text x="6" y="14.28499984741211" style="font-family: -apple-system, BlinkMacSystemFont, &quot;Segoe WPC&quot;, &quot;Segoe UI&quot;, &quot;Ubuntu&quot;, &quot;Droid Sans&quot;, sans-serif, &quot;PingFang SC&quot;; font-size: 11px; text-rendering: geometricprecision; fill: rgb(255, 255, 255);">Bitcast</text><title>Flatten_9(Flatten)</title></g><path class="node border" d="M5,0h37.05500030517578a5,5 0 0 1 5,5v10.980000495910645a5,5 0 0 1 -5,5h-37.05500030517578a5,5 0 0 1 -5,-5v-10.980000495910645a5,5 0 0 1 5,-5z" style="stroke: rgb(51, 51, 51); fill: none; stroke-width: 1px;"/></g></g><g id="node-name-Conv_5(Conv2d)/dequantize" class="node graph-node" style="opacity: 1;" transform="translate(50,198.82999897003174)"><g transform="translate(-34.99500274658203,-10.489999771118164)"><g class="node-item node-item-type" transform="translate(0,0)"><path d="M5,0h59.9900016784668a5,5 0 0 1 5,5v10.980000495910645a5,5 0 0 1 -5,5h-59.9900016784668a5,5 0 0 1 -5,-5v-10.980000495910645a5,5 0 0 1 5,-5z" style="stroke: rgb(0, 0, 0); fill: rgb(0, 0, 0); stroke-width: 0px;"/><text x="6" y="14.28499984741211" style="font-family: -apple-system, BlinkMacSystemFont, &quot;Segoe WPC&quot;, &quot;Segoe UI&quot;, &quot;Ubuntu&quot;, &quot;Droid Sans&quot;, sans-serif, &quot;PingFang SC&quot;; font-size: 11px; text-rendering: geometricprecision; fill: rgb(255, 255, 255);">Dequantize</text><title>Conv_5(Conv2d)/dequantize</title></g><path class="node border" d="M5,0h59.9900016784668a5,5 0 0 1 5,5v10.980000495910645a5,5 0 0 1 -5,5h-59.9900016784668a5,5 0 0 1 -5,-5v-10.980000495910645a5,5 0 0 1 5,-5z" style="stroke: rgb(51, 51, 51); fill: none; stroke-width: 1px;"/></g></g><g id="node-name-k210_0" class="node graph-node" style="opacity: 1;" transform="translate(50,73.26999950408936)"><g transform="translate(-16.102500915527344,-10.489999771118164)"><g class="node-item node-item-type" transform="translate(0,0)"><path d="M5,0h22.204999923706055a5,5 0 0 1 5,5v10.980000495910645a5,5 0 0 1 -5,5h-22.204999923706055a5,5 0 0 1 -5,-5v-10.980000495910645a5,5 0 0 1 5,-5z" style="stroke: rgb(0, 0, 0); fill: rgb(0, 0, 0); stroke-width: 0px;"/><text x="6" y="14.28499984741211" style="font-family: -apple-system, BlinkMacSystemFont, &quot;Segoe WPC&quot;, &quot;Segoe UI&quot;, &quot;Ubuntu&quot;, &quot;Droid Sans&quot;, sans-serif, &quot;PingFang SC&quot;; font-size: 11px; text-rendering: geometricprecision; fill: rgb(255, 255, 255);">Call</text><title>k210_0</title></g><path class="node border" d="M5,0h22.204999923706055a5,5 0 0 1 5,5v10.980000495910645a5,5 0 0 1 -5,5h-22.204999923706055a5,5 0 0 1 -5,-5v-10.980000495910645a5,5 0 0 1 5,-5z" style="stroke: rgb(51, 51, 51); fill: none; stroke-width: 1px;"/></g></g><g id="input-name-img" class="node graph-input" style="opacity: 1;" transform="matrix(1, 0, 0, 1, 50, 10.49)"><g transform="translate(-16.212499618530273,-10.489999771118164)"><g class="node-item graph-item-input" transform="translate(0,0)"><path d="M5,0h22.424999237060547a5,5 0 0 1 5,5v10.980000495910645a5,5 0 0 1 -5,5h-22.424999237060547a5,5 0 0 1 -5,-5v-10.980000495910645a5,5 0 0 1 5,-5z" style="stroke: rgb(0, 0, 0); fill: rgb(238, 238, 238); stroke-width: 0px;"/><text x="6" y="14.28499984741211" style="font-family: -apple-system, BlinkMacSystemFont, &quot;Segoe WPC&quot;, &quot;Segoe UI&quot;, &quot;Ubuntu&quot;, &quot;Droid Sans&quot;, sans-serif, &quot;PingFang SC&quot;; font-size: 11px; text-rendering: geometricprecision;">img</text><title>uint8[1,1,28,28]</title></g><path class="node border" d="M5,0h22.424999237060547a5,5 0 0 1 5,5v10.980000495910645a5,5 0 0 1 -5,5h-22.424999237060547a5,5 0 0 1 -5,-5v-10.980000495910645a5,5 0 0 1 5,-5z" style="stroke: rgb(51, 51, 51); fill: none; stroke-width: 1px;"/></g></g><g class="node" style="opacity: 1;" transform="translate(50,929.8200016021729)"><g transform="translate(-17.807498931884766,-10.489999771118164)"><g class="node-item graph-item-output" transform="translate(0,0)"><path d="M5,0h25.614999771118164a5,5 0 0 1 5,5v10.980000495910645a5,5 0 0 1 -5,5h-25.614999771118164a5,5 0 0 1 -5,-5v-10.980000495910645a5,5 0 0 1 5,-5z" style="stroke: rgb(0, 0, 0); fill: rgb(238, 238, 238); stroke-width: 0px;"/><text x="6" y="14.28499984741211" style="font-family: -apple-system, BlinkMacSystemFont, &quot;Segoe WPC&quot;, &quot;Segoe UI&quot;, &quot;Ubuntu&quot;, &quot;Droid Sans&quot;, sans-serif, &quot;PingFang SC&quot;; font-size: 11px; text-rendering: geometricprecision;">digit</text><title>float32[1,10]</title></g><path class="node border" d="M5,0h25.614999771118164a5,5 0 0 1 5,5v10.980000495910645a5,5 0 0 1 -5,5h-25.614999771118164a5,5 0 0 1 -5,-5v-10.980000495910645a5,5 0 0 1 5,-5z" style="stroke: rgb(51, 51, 51); fill: none; stroke-width: 1px;"/></g></g></g></g></svg>