<svg xmlns="http://www.w3.org/2000/svg" id="export" class="canvas" preserveAspectRatio="xMidYMid meet" style="position: absolute; margin: 0px;" width="127" height="1113"><rect id="background" fill="#fff" pointer-events="all" width="127" height="1113"/><g id="origin" transform="translate(5.7393745422363285, 5.7393745422363285) scale(1)"><g id="clusters" class="clusters"/><g id="edge-paths" class="edge-paths"><defs><marker id="arrowhead-vee" viewBox="0 0 10 10" refX="9" refY="5" markerUnits="strokeWidth" markerWidth="8" markerHeight="6" orient="auto" style="fill: rgb(0, 0, 0);"><path d="M 0 0 L 10 5 L 0 10 L 4 5 z" style="stroke-width: 1px;"/></marker><marker id="arrowhead-vee-select" viewBox="0 0 10 10" refX="9" refY="5" markerUnits="strokeWidth" markerWidth="8" markerHeight="6" orient="auto" style="fill: rgb(238, 0, 0);"><path d="M 0 0 L 10 5 L 0 10 L 4 5 z" style="stroke-width: 1px;"/></marker></defs><path id="edge-img" class="edge-path" d="M51.962501525878906,20.979999542236328L51.962501525878906,24.463332891464233C51.962501525878906,27.94666624069214,51.962501525878906,34.91333293914795,51.962501525878906,41.87999963760376C51.962501525878906,48.84666633605957,51.962501525878906,55.81333303451538,51.962501525878906,59.296666383743286L51.962501525878906,62.77999973297119" style="stroke: rgb(0, 0, 0); stroke-width: 1px; fill: none; marker-end: url(&quot;#arrowhead-vee&quot;);"/><path id="edge-Conv_0(Conv2d)" class="edge-path" d="M51.962501525878906,116.52999973297119L51.962501525878906,120.0133330821991C51.962501525878906,123.496666431427,51.962501525878906,130.4633331298828,51.962501525878906,137.42999982833862C51.962501525878906,144.39666652679443,51.962501525878906,151.36333322525024,51.962501525878906,154.84666657447815L51.962501525878906,158.32999992370605" style="stroke: rgb(0, 0, 0); stroke-width: 1px; fill: none; marker-end: url(&quot;#arrowhead-vee&quot;);"/><path id="edge-Relu_1.max(Relu)" class="edge-path" d="M51.962501525878906,198.69500160217285L51.962501525878906,202.17833495140076C51.962501525878906,205.66166830062866,51.962501525878906,212.62833499908447,51.962501525878906,219.59500169754028C51.962501525878906,226.5616683959961,51.962501525878906,233.5283350944519,51.962501525878906,237.0116684436798L51.962501525878906,240.49500179290771" style="stroke: rgb(0, 0, 0); stroke-width: 1px; fill: none; marker-end: url(&quot;#arrowhead-vee&quot;);"/><path id="edge-Conv_2(Conv2d)" class="edge-path" d="M51.962501525878906,294.2450017929077L51.962501525878906,297.7283351421356C51.962501525878906,301.2116684913635,51.962501525878906,308.17833518981934,51.962501525878906,315.14500188827515C51.962501525878906,322.11166858673096,51.962501525878906,329.07833528518677,51.962501525878906,332.5616686344147L51.962501525878906,336.0450019836426" style="stroke: rgb(0, 0, 0); stroke-width: 1px; fill: none; marker-end: url(&quot;#arrowhead-vee&quot;);"/><path id="edge-Relu_3.max(Relu)" class="edge-path" d="M51.962501525878906,376.4100036621094L51.962501525878906,379.8933370113373C51.962501525878906,383.3766703605652,51.962501525878906,390.343337059021,51.962501525878906,397.3100037574768C51.962501525878906,404.2766704559326,51.962501525878906,411.2433371543884,51.962501525878906,414.72667050361633L51.962501525878906,418.21000385284424" style="stroke: rgb(0, 0, 0); stroke-width: 1px; fill: none; marker-end: url(&quot;#arrowhead-vee&quot;);"/><path id="edge-MaxPool_4.reduce_max(Pool)" class="edge-path" d="M51.962501525878906,439.19000339508057L51.962501525878906,442.6733367443085C51.962501525878906,446.1566700935364,51.962501525878906,453.1233367919922,51.962501525878906,460.090003490448C51.962501525878906,467.0566701889038,51.962501525878906,474.0233368873596,51.962501525878906,477.5066702365875L51.962501525878906,480.99000358581543" style="stroke: rgb(0, 0, 0); stroke-width: 1px; fill: none; marker-end: url(&quot;#arrowhead-vee&quot;);"/><path id="edge-Conv_5(Conv2d)" class="edge-path" d="M51.962501525878906,534.7400035858154L51.962501525878906,538.2233369350433C51.962501525878906,541.7066702842712,51.962501525878906,548.673336982727,51.962501525878906,555.6400036811829C51.962501525878906,562.6066703796387,51.962501525878906,569.5733370780945,51.962501525878906,573.0566704273224L51.962501525878906,576.5400037765503" style="stroke: rgb(0, 0, 0); stroke-width: 1px; fill: none; marker-end: url(&quot;#arrowhead-vee&quot;);"/><path id="edge-AveragePool_8.reduce_mean(Pool)" class="edge-path" d="M51.962501525878906,597.5200033187866L51.962501525878906,601.0033366680145C51.962501525878906,604.4866700172424,51.962501525878906,611.4533367156982,51.962501525878906,618.420003414154C51.962501525878906,625.3866701126099,51.962501525878906,632.3533368110657,51.962501525878906,635.8366701602936L51.962501525878906,639.3200035095215" style="stroke: rgb(0, 0, 0); stroke-width: 1px; fill: none; marker-end: url(&quot;#arrowhead-vee&quot;);"/><path id="edge-Flatten_9(Flatten)" class="edge-path" d="M63.60041938450303,660.3000030517578L67.4649330429432,663.7833364009857C71.32944670138336,667.2666697502136,79.05847401826371,674.2333364486694,82.92298767670387,681.2683365345001C86.78750133514404,688.3033366203308,86.78750133514404,695.4066700935364,86.78750133514404,698.9583368301392L86.78750133514404,702.510003566742" style="stroke: rgb(0, 0, 0); stroke-width: 1px; fill: none; marker-end: url(&quot;#arrowhead-vee&quot;);"/><path id="edge-Flatten_9(Flatten)" class="edge-path" d="M40.324583667254785,660.3000030517578L36.46007000881462,663.7833364009857C32.595556350374444,667.2666697502136,24.866529033494107,674.2333364486694,21.00201537505394,683.0166698296865C17.13750171661377,691.8000032107035,17.13750171661377,702.4000032742819,17.13750171661377,713.0000033378601C17.13750171661377,723.6000034014384,17.13750171661377,734.2000034650167,21.00201537505394,742.9833368460337C24.866529033494107,751.7666702270508,32.595556350374444,758.7333369255066,36.46007000881462,762.2166702747345L40.324583667254785,765.7000036239624" style="stroke: rgb(0, 0, 0); stroke-width: 1px; fill: none; marker-end: url(&quot;#arrowhead-vee&quot;);"/><path id="edge-Softmax_10.max(Softmax)" class="edge-path" d="M86.78750133514404,723.4900031089783L86.78750133514404,727.041669845581C86.78750133514404,730.5933365821838,86.78750133514404,737.6966700553894,82.92298767670387,744.7316701412201C79.05847401826371,751.7666702270508,71.32944670138336,758.7333369255066,67.4649330429432,762.2166702747345L63.60041938450303,765.7000036239624" style="stroke: rgb(0, 0, 0); stroke-width: 1px; fill: none; marker-end: url(&quot;#arrowhead-vee&quot;);"/><path id="edge-Softmax_10.sub(Softmax)" class="edge-path" d="M51.962501525878906,786.6800031661987L51.962501525878906,790.1633365154266C51.962501525878906,793.6466698646545,51.962501525878906,800.6133365631104,51.962501525878906,807.5800032615662C51.962501525878906,814.546669960022,51.962501525878906,821.5133366584778,51.962501525878906,824.9966700077057L51.962501525878906,828.4800033569336" style="stroke: rgb(0, 0, 0); stroke-width: 1px; fill: none; marker-end: url(&quot;#arrowhead-vee&quot;);"/><path id="edge-Softmax_10.exp(Softmax)" class="edge-path" d="M63.60041938450303,849.4600028991699L67.4649330429432,852.9433362483978C71.32944670138336,856.4266695976257,79.05847401826371,863.3933362960815,82.92298767670387,870.4283363819122C86.78750133514404,877.4633364677429,86.78750133514404,884.5666699409485,86.78750133514404,888.1183366775513L86.78750133514404,891.670003414154" style="stroke: rgb(0, 0, 0); stroke-width: 1px; fill: none; marker-end: url(&quot;#arrowhead-vee&quot;);"/><path id="edge-Softmax_10.exp(Softmax)" class="edge-path" d="M40.324583667254785,849.4600028991699L36.46007000881462,852.9433362483978C32.595556350374444,856.4266695976257,24.866529033494107,863.3933362960815,21.00201537505394,872.1766696770986C17.13750171661377,880.9600030581156,17.13750171661377,891.560003121694,17.13750171661377,902.1600031852722C17.13750171661377,912.7600032488505,17.13750171661377,923.3600033124288,21.00201537505394,932.1433366934458C24.866529033494107,940.9266700744629,32.595556350374444,947.8933367729187,36.46007000881462,951.3766701221466L40.324583667254785,954.8600034713745" style="stroke: rgb(0, 0, 0); stroke-width: 1px; fill: none; marker-end: url(&quot;#arrowhead-vee&quot;);"/><path id="edge-Softmax_10.sum(Softmax)" class="edge-path" d="M86.78750133514404,912.6500029563904L86.78750133514404,916.2016696929932C86.78750133514404,919.753336429596,86.78750133514404,926.8566699028015,82.92298767670387,933.8916699886322C79.05847401826371,940.9266700744629,71.32944670138336,947.8933367729187,67.4649330429432,951.3766701221466L63.60041938450303,954.8600034713745" style="stroke: rgb(0, 0, 0); stroke-width: 1px; fill: none; marker-end: url(&quot;#arrowhead-vee&quot;);"/><path id="edge-Softmax_10.div(Softmax)" class="edge-path" d="M51.962501525878906,975.8400030136108L51.962501525878906,979.3233363628387C51.962501525878906,982.8066697120667,51.962501525878906,989.7733364105225,51.962501525878906,996.7400031089783C51.962501525878906,1003.7066698074341,51.962501525878906,1010.6733365058899,51.962501525878906,1014.1566698551178L51.962501525878906,1017.6400032043457" style="stroke: rgb(0, 0, 0); stroke-width: 1px; fill: none; marker-end: url(&quot;#arrowhead-vee&quot;);"/><path id="edge-digit" class="edge-path" d="M51.962501525878906,1038.620002746582L51.962501525878906,1042.10333609581C51.962501525878906,1045.5866694450378,51.962501525878906,1052.5533361434937,51.962501525878906,1059.5200028419495C51.962501525878906,1066.4866695404053,51.962501525878906,1073.453336238861,51.962501525878906,1076.936669588089L51.962501525878906,1080.420002937317" style="stroke: rgb(0, 0, 0); stroke-width: 1px; fill: none; marker-end: url(&quot;#arrowhead-vee&quot;);"/></g><g id="edge-labels" class="edge-labels"><g style="opacity: 1;" class="edge-label" id="edge-label-edge-img" transform="translate(81.7125015258789,41.87999963760376)"><g transform="translate(-24.75,-5.900000095367432)"><text style="font-family: -apple-system, BlinkMacSystemFont, &quot;Segoe WPC&quot;, &quot;Segoe UI&quot;, &quot;Ubuntu&quot;, &quot;Droid Sans&quot;, sans-serif, &quot;PingFang SC&quot;; font-size: 10px;"><tspan xml:space="preserve" dy="1em" x="1">1×1×28×28</tspan></text></g></g><g style="opacity: 1;" class="edge-label" id="edge-label-edge-Conv_0(Conv2d)" transform="translate(84.4625015258789,137.42999982833862)"><g transform="translate(-27.5,-5.900000095367432)"><text style="font-family: -apple-system, BlinkMacSystemFont, &quot;Segoe WPC&quot;, &quot;Segoe UI&quot;, &quot;Ubuntu&quot;, &quot;Droid Sans&quot;, sans-serif, &quot;PingFang SC&quot;; font-size: 10px;"><tspan xml:space="preserve" dy="1em" x="1">1×32×26×26</tspan></text></g></g><g style="opacity: 1;" class="edge-label" id="edge-label-edge-Relu_1.max(Relu)" transform="translate(84.4625015258789,219.59500169754028)"><g transform="translate(-27.5,-5.900000095367432)"><text style="font-family: -apple-system, BlinkMacSystemFont, &quot;Segoe WPC&quot;, &quot;Segoe UI&quot;, &quot;Ubuntu&quot;, &quot;Droid Sans&quot;, sans-serif, &quot;PingFang SC&quot;; font-size: 10px;"><tspan xml:space="preserve" dy="1em" x="1">1×32×26×26</tspan></text></g></g><g style="opacity: 1;" class="edge-label" id="edge-label-edge-Conv_2(Conv2d)" transform="translate(84.4625015258789,315.14500188827515)"><g transform="translate(-27.5,-5.900000095367432)"><text style="font-family: -apple-system, BlinkMacSystemFont, &quot;Segoe WPC&quot;, &quot;Segoe UI&quot;, &quot;Ubuntu&quot;, &quot;Droid Sans&quot;, sans-serif, &quot;PingFang SC&quot;; font-size: 10px;"><tspan xml:space="preserve" dy="1em" x="1">1×64×24×24</tspan></text></g></g><g style="opacity: 1;" class="edge-label" id="edge-label-edge-Relu_3.max(Relu)" transform="translate(84.4625015258789,397.3100037574768)"><g transform="translate(-27.5,-5.900000095367432)"><text style="font-family: -apple-system, BlinkMacSystemFont, &quot;Segoe WPC&quot;, &quot;Segoe UI&quot;, &quot;Ubuntu&quot;, &quot;Droid Sans&quot;, sans-serif, &quot;PingFang SC&quot;; font-size: 10px;"><tspan xml:space="preserve" dy="1em" x="1">1×64×24×24</tspan></text></g></g><g style="opacity: 1;" class="edge-label" id="edge-label-edge-MaxPool_4.reduce_max(Pool)" transform="translate(78.9625015258789,460.090003490448)"><g transform="translate(-22,-5.900000095367432)"><text style="font-family: -apple-system, BlinkMacSystemFont, &quot;Segoe WPC&quot;, &quot;Segoe UI&quot;, &quot;Ubuntu&quot;, &quot;Droid Sans&quot;, sans-serif, &quot;PingFang SC&quot;; font-size: 10px;"><tspan xml:space="preserve" dy="1em" x="1">1×64×6×6</tspan></text></g></g><g style="opacity: 1;" class="edge-label" id="edge-label-edge-Conv_5(Conv2d)" transform="translate(78.9625015258789,555.6400036811829)"><g transform="translate(-22,-5.900000095367432)"><text style="font-family: -apple-system, BlinkMacSystemFont, &quot;Segoe WPC&quot;, &quot;Segoe UI&quot;, &quot;Ubuntu&quot;, &quot;Droid Sans&quot;, sans-serif, &quot;PingFang SC&quot;; font-size: 10px;"><tspan xml:space="preserve" dy="1em" x="1">1×10×4×4</tspan></text></g></g><g style="opacity: 1;" class="edge-label" id="edge-label-edge-AveragePool_8.reduce_mean(Pool)" transform="translate(78.9625015258789,618.420003414154)"><g transform="translate(-22,-5.900000095367432)"><text style="font-family: -apple-system, BlinkMacSystemFont, &quot;Segoe WPC&quot;, &quot;Segoe UI&quot;, &quot;Ubuntu&quot;, &quot;Droid Sans&quot;, sans-serif, &quot;PingFang SC&quot;; font-size: 10px;"><tspan xml:space="preserve" dy="1em" x="1">1×10×1×1</tspan></text></g></g><g style="opacity: 1;" class="edge-label" id="edge-label-edge-Flatten_9(Flatten)" transform="translate(102.78750133514404,681.2000031471252)"><g transform="translate(-11,-5.900000095367432)"><text style="font-family: -apple-system, BlinkMacSystemFont, &quot;Segoe WPC&quot;, &quot;Segoe UI&quot;, &quot;Ubuntu&quot;, &quot;Droid Sans&quot;, sans-serif, &quot;PingFang SC&quot;; font-size: 10px;"><tspan xml:space="preserve" dy="1em" x="1">1×10</tspan></text></g></g><g style="opacity: 1;" class="edge-label" id="edge-label-edge-Flatten_9(Flatten)" transform="translate(33.13750171661377,713.0000033378601)"><g transform="translate(-11,-5.900000095367432)"><text style="font-family: -apple-system, BlinkMacSystemFont, &quot;Segoe WPC&quot;, &quot;Segoe UI&quot;, &quot;Ubuntu&quot;, &quot;Droid Sans&quot;, sans-serif, &quot;PingFang SC&quot;; font-size: 10px;"><tspan xml:space="preserve" dy="1em" x="1">1×10</tspan></text></g></g><g style="opacity: 1;" class="edge-label" id="edge-label-edge-Softmax_10.max(Softmax)" transform="translate(100.03750133514404,744.800003528595)"><g transform="translate(-8.25,-5.900000095367432)"><text style="font-family: -apple-system, BlinkMacSystemFont, &quot;Segoe WPC&quot;, &quot;Segoe UI&quot;, &quot;Ubuntu&quot;, &quot;Droid Sans&quot;, sans-serif, &quot;PingFang SC&quot;; font-size: 10px;"><tspan xml:space="preserve" dy="1em" x="1">1×1</tspan></text></g></g><g style="opacity: 1;" class="edge-label" id="edge-label-edge-Softmax_10.sub(Softmax)" transform="translate(67.9625015258789,807.5800032615662)"><g transform="translate(-11,-5.900000095367432)"><text style="font-family: -apple-system, BlinkMacSystemFont, &quot;Segoe WPC&quot;, &quot;Segoe UI&quot;, &quot;Ubuntu&quot;, &quot;Droid Sans&quot;, sans-serif, &quot;PingFang SC&quot;; font-size: 10px;"><tspan xml:space="preserve" dy="1em" x="1">1×10</tspan></text></g></g><g style="opacity: 1;" class="edge-label" id="edge-label-edge-Softmax_10.exp(Softmax)" transform="translate(102.78750133514404,870.3600029945374)"><g transform="translate(-11,-5.900000095367432)"><text style="font-family: -apple-system, BlinkMacSystemFont, &quot;Segoe WPC&quot;, &quot;Segoe UI&quot;, &quot;Ubuntu&quot;, &quot;Droid Sans&quot;, sans-serif, &quot;PingFang SC&quot;; font-size: 10px;"><tspan xml:space="preserve" dy="1em" x="1">1×10</tspan></text></g></g><g style="opacity: 1;" class="edge-label" id="edge-label-edge-Softmax_10.exp(Softmax)" transform="translate(33.13750171661377,902.1600031852722)"><g transform="translate(-11,-5.900000095367432)"><text style="font-family: -apple-system, BlinkMacSystemFont, &quot;Segoe WPC&quot;, &quot;Segoe UI&quot;, &quot;Ubuntu&quot;, &quot;Droid Sans&quot;, sans-serif, &quot;PingFang SC&quot;; font-size: 10px;"><tspan xml:space="preserve" dy="1em" x="1">1×10</tspan></text></g></g><g style="opacity: 1;" class="edge-label" id="edge-label-edge-Softmax_10.sum(Softmax)" transform="translate(100.03750133514404,933.9600033760071)"><g transform="translate(-8.25,-5.900000095367432)"><text style="font-family: -apple-system, BlinkMacSystemFont, &quot;Segoe WPC&quot;, &quot;Segoe UI&quot;, &quot;Ubuntu&quot;, &quot;Droid Sans&quot;, sans-serif, &quot;PingFang SC&quot;; font-size: 10px;"><tspan xml:space="preserve" dy="1em" x="1">1×1</tspan></text></g></g><g style="opacity: 1;" class="edge-label" id="edge-label-edge-Softmax_10.div(Softmax)" transform="translate(67.9625015258789,996.7400031089783)"><g transform="translate(-11,-5.900000095367432)"><text style="font-family: -apple-system, BlinkMacSystemFont, &quot;Segoe WPC&quot;, &quot;Segoe UI&quot;, &quot;Ubuntu&quot;, &quot;Droid Sans&quot;, sans-serif, &quot;PingFang SC&quot;; font-size: 10px;"><tspan xml:space="preserve" dy="1em" x="1">1×10</tspan></text></g></g><g style="opacity: 1;" class="edge-label" id="edge-label-edge-digit" transform="translate(67.9625015258789,1059.5200028419495)"><g transform="translate(-11,-5.900000095367432)"><text style="font-family: -apple-system, BlinkMacSystemFont, &quot;Segoe WPC&quot;, &quot;Segoe UI&quot;, &quot;Ubuntu&quot;, &quot;Droid Sans&quot;, sans-serif, &quot;PingFang SC&quot;; font-size: 10px;"><tspan xml:space="preserve" dy="1em" x="1">1×10</tspan></text></g></g></g><g id="nodes" class="nodes"><g id="node-name-Conv_0(Conv2d)" class="node graph-node" style="opacity: 1;" transform="translate(51.962501525878906,89.65499973297119)"><g transform="translate(-50,-26.875)"><g class="node-item node-item-type" transform="translate(0,0)"><path d="M5,0h90a5,5 0 0 1 5,5v15.980000495910645a0,0 0 0 1 0,0h-100a0,0 0 0 1 0,0v-15.980000495910645a5,5 0 0 1 5,-5z" style="stroke: rgb(0, 0, 0); fill: rgb(0, 0, 0); stroke-width: 0px;"/><text x="6" y="14.28499984741211" style="font-family: -apple-system, BlinkMacSystemFont, &quot;Segoe WPC&quot;, &quot;Segoe UI&quot;, &quot;Ubuntu&quot;, &quot;Droid Sans&quot;, sans-serif, &quot;PingFang SC&quot;; font-size: 11px; text-rendering: geometricprecision; fill: rgb(255, 255, 255);">Conv2D</text><title>Conv_0(Conv2d)</title></g><g class="node-attribute" transform="translate(0,20.980000495910645)"><path d="M0,0h100a0,0 0 0 1 0,0v27.770000457763672a5,5 0 0 1 -5,5h-90a5,5 0 0 1 -5,-5v-27.770000457763672a0,0 0 0 1 0,0z" style="stroke: rgb(0, 0, 0); fill: rgb(255, 255, 255); stroke-width: 0px;"/><text id="initializer-Constant_5" xml:space="preserve" x="6" y="12.6850004196167" style="font-family: -apple-system, BlinkMacSystemFont, &quot;Segoe WPC&quot;, &quot;Segoe UI&quot;, &quot;Ubuntu&quot;, &quot;Droid Sans&quot;, sans-serif, &quot;PingFang SC&quot;; font-size: 9px; font-weight: normal; text-rendering: geometricprecision;"><title>float32[32,1,3,3]</title><tspan style="font-weight: bold;">1</tspan><tspan>〈32×1×3×3〉</tspan></text><text id="initializer-Constant_4" xml:space="preserve" x="6" y="26.070000648498535" style="font-family: -apple-system, BlinkMacSystemFont, &quot;Segoe WPC&quot;, &quot;Segoe UI&quot;, &quot;Ubuntu&quot;, &quot;Droid Sans&quot;, sans-serif, &quot;PingFang SC&quot;; font-size: 9px; font-weight: normal; text-rendering: geometricprecision;"><title>float32[32]</title><tspan style="font-weight: bold;">2</tspan><tspan>〈32〉</tspan></text><line class="node" x1="0" x2="100" y1="0" y2="0" style="stroke: rgb(51, 51, 51); fill: none; stroke-width: 1px;"/></g><path class="node border" d="M5,0h90a5,5 0 0 1 5,5v43.750000953674316a5,5 0 0 1 -5,5h-90a5,5 0 0 1 -5,-5v-43.750000953674316a5,5 0 0 1 5,-5z" style="stroke: rgb(51, 51, 51); fill: none; stroke-width: 1px;"/></g></g><g id="node-name-Relu_1.max(Relu)" class="node graph-node" style="opacity: 1;" transform="translate(51.962501525878906,178.51250076293945)"><g transform="translate(-50,-20.1825008392334)"><g class="node-item node-item-type" transform="translate(0,0)"><path d="M5,0h90a5,5 0 0 1 5,5v15.980000495910645a0,0 0 0 1 0,0h-100a0,0 0 0 1 0,0v-15.980000495910645a5,5 0 0 1 5,-5z" style="stroke: rgb(0, 0, 0); fill: rgb(0, 0, 0); stroke-width: 0px;"/><text x="6" y="14.28499984741211" style="font-family: -apple-system, BlinkMacSystemFont, &quot;Segoe WPC&quot;, &quot;Segoe UI&quot;, &quot;Ubuntu&quot;, &quot;Droid Sans&quot;, sans-serif, &quot;PingFang SC&quot;; font-size: 11px; text-rendering: geometricprecision; fill: rgb(255, 255, 255);">Binary</text><title>Relu_1.max(Relu)</title></g><g class="node-attribute" transform="translate(0,20.980000495910645)"><path d="M0,0h100a0,0 0 0 1 0,0v14.385000228881836a5,5 0 0 1 -5,5h-90a5,5 0 0 1 -5,-5v-14.385000228881836a0,0 0 0 1 0,0z" style="stroke: rgb(0, 0, 0); fill: rgb(255, 255, 255); stroke-width: 0px;"/><text id="initializer-Relu_1.zero(Relu)" xml:space="preserve" x="6" y="12.6850004196167" style="font-family: -apple-system, BlinkMacSystemFont, &quot;Segoe WPC&quot;, &quot;Segoe UI&quot;, &quot;Ubuntu&quot;, &quot;Droid Sans&quot;, sans-serif, &quot;PingFang SC&quot;; font-size: 9px; font-weight: normal; text-rendering: geometricprecision;"><title>float32[1]</title><tspan style="font-weight: bold;">1</tspan><tspan>〈1〉</tspan></text><line class="node" x1="0" x2="100" y1="0" y2="0" style="stroke: rgb(51, 51, 51); fill: none; stroke-width: 1px;"/></g><path class="node border" d="M5,0h90a5,5 0 0 1 5,5v30.36500072479248a5,5 0 0 1 -5,5h-90a5,5 0 0 1 -5,-5v-30.36500072479248a5,5 0 0 1 5,-5z" style="stroke: rgb(51, 51, 51); fill: none; stroke-width: 1px;"/></g></g><g id="node-name-Conv_2(Conv2d)" class="node graph-node" style="opacity: 1;" transform="translate(51.962501525878906,267.3700017929077)"><g transform="translate(-50,-26.875)"><g class="node-item node-item-type" transform="translate(0,0)"><path d="M5,0h90a5,5 0 0 1 5,5v15.980000495910645a0,0 0 0 1 0,0h-100a0,0 0 0 1 0,0v-15.980000495910645a5,5 0 0 1 5,-5z" style="stroke: rgb(0, 0, 0); fill: rgb(0, 0, 0); stroke-width: 0px;"/><text x="6" y="14.28499984741211" style="font-family: -apple-system, BlinkMacSystemFont, &quot;Segoe WPC&quot;, &quot;Segoe UI&quot;, &quot;Ubuntu&quot;, &quot;Droid Sans&quot;, sans-serif, &quot;PingFang SC&quot;; font-size: 11px; text-rendering: geometricprecision; fill: rgb(255, 255, 255);">Conv2D</text><title>Conv_2(Conv2d)</title></g><g class="node-attribute" transform="translate(0,20.980000495910645)"><path d="M0,0h100a0,0 0 0 1 0,0v27.770000457763672a5,5 0 0 1 -5,5h-90a5,5 0 0 1 -5,-5v-27.770000457763672a0,0 0 0 1 0,0z" style="stroke: rgb(0, 0, 0); fill: rgb(255, 255, 255); stroke-width: 0px;"/><text id="initializer-Constant_3" xml:space="preserve" x="6" y="12.6850004196167" style="font-family: -apple-system, BlinkMacSystemFont, &quot;Segoe WPC&quot;, &quot;Segoe UI&quot;, &quot;Ubuntu&quot;, &quot;Droid Sans&quot;, sans-serif, &quot;PingFang SC&quot;; font-size: 9px; font-weight: normal; text-rendering: geometricprecision;"><title>float32[64,32,3,3]</title><tspan style="font-weight: bold;">1</tspan><tspan>〈64×32×3×3〉</tspan></text><text id="initializer-Constant_2" xml:space="preserve" x="6" y="26.070000648498535" style="font-family: -apple-system, BlinkMacSystemFont, &quot;Segoe WPC&quot;, &quot;Segoe UI&quot;, &quot;Ubuntu&quot;, &quot;Droid Sans&quot;, sans-serif, &quot;PingFang SC&quot;; font-size: 9px; font-weight: normal; text-rendering: geometricprecision;"><title>float32[64]</title><tspan style="font-weight: bold;">2</tspan><tspan>〈64〉</tspan></text><line class="node" x1="0" x2="100" y1="0" y2="0" style="stroke: rgb(51, 51, 51); fill: none; stroke-width: 1px;"/></g><path class="node border" d="M5,0h90a5,5 0 0 1 5,5v43.750000953674316a5,5 0 0 1 -5,5h-90a5,5 0 0 1 -5,-5v-43.750000953674316a5,5 0 0 1 5,-5z" style="stroke: rgb(51, 51, 51); fill: none; stroke-width: 1px;"/></g></g><g id="node-name-Relu_3.max(Relu)" class="node graph-node" style="opacity: 1;" transform="translate(51.962501525878906,356.227502822876)"><g transform="translate(-50,-20.1825008392334)"><g class="node-item node-item-type" transform="translate(0,0)"><path d="M5,0h90a5,5 0 0 1 5,5v15.980000495910645a0,0 0 0 1 0,0h-100a0,0 0 0 1 0,0v-15.980000495910645a5,5 0 0 1 5,-5z" style="stroke: rgb(0, 0, 0); fill: rgb(0, 0, 0); stroke-width: 0px;"/><text x="6" y="14.28499984741211" style="font-family: -apple-system, BlinkMacSystemFont, &quot;Segoe WPC&quot;, &quot;Segoe UI&quot;, &quot;Ubuntu&quot;, &quot;Droid Sans&quot;, sans-serif, &quot;PingFang SC&quot;; font-size: 11px; text-rendering: geometricprecision; fill: rgb(255, 255, 255);">Binary</text><title>Relu_3.max(Relu)</title></g><g class="node-attribute" transform="translate(0,20.980000495910645)"><path d="M0,0h100a0,0 0 0 1 0,0v14.385000228881836a5,5 0 0 1 -5,5h-90a5,5 0 0 1 -5,-5v-14.385000228881836a0,0 0 0 1 0,0z" style="stroke: rgb(0, 0, 0); fill: rgb(255, 255, 255); stroke-width: 0px;"/><text id="initializer-Relu_3.zero(Relu)" xml:space="preserve" x="6" y="12.6850004196167" style="font-family: -apple-system, BlinkMacSystemFont, &quot;Segoe WPC&quot;, &quot;Segoe UI&quot;, &quot;Ubuntu&quot;, &quot;Droid Sans&quot;, sans-serif, &quot;PingFang SC&quot;; font-size: 9px; font-weight: normal; text-rendering: geometricprecision;"><title>float32[1]</title><tspan style="font-weight: bold;">1</tspan><tspan>〈1〉</tspan></text><line class="node" x1="0" x2="100" y1="0" y2="0" style="stroke: rgb(51, 51, 51); fill: none; stroke-width: 1px;"/></g><path class="node border" d="M5,0h90a5,5 0 0 1 5,5v30.36500072479248a5,5 0 0 1 -5,5h-90a5,5 0 0 1 -5,-5v-30.36500072479248a5,5 0 0 1 5,-5z" style="stroke: rgb(51, 51, 51); fill: none; stroke-width: 1px;"/></g></g><g id="node-name-MaxPool_4.reduce_max(Pool)" class="node graph-node" style="opacity: 1;" transform="translate(51.962501525878906,428.7000036239624)"><g transform="translate(-51.962501525878906,-10.489999771118164)"><g class="node-item node-item-type" transform="translate(0,0)"><path d="M5,0h93.92500305175781a5,5 0 0 1 5,5v10.980000495910645a5,5 0 0 1 -5,5h-93.92500305175781a5,5 0 0 1 -5,-5v-10.980000495910645a5,5 0 0 1 5,-5z" style="stroke: rgb(0, 0, 0); fill: rgb(0, 0, 0); stroke-width: 0px;"/><text x="6" y="14.28499984741211" style="font-family: -apple-system, BlinkMacSystemFont, &quot;Segoe WPC&quot;, &quot;Segoe UI&quot;, &quot;Ubuntu&quot;, &quot;Droid Sans&quot;, sans-serif, &quot;PingFang SC&quot;; font-size: 11px; text-rendering: geometricprecision; fill: rgb(255, 255, 255);">ReduceWindow2D</text><title>MaxPool_4.reduce_max(Pool)</title></g><path class="node border" d="M5,0h93.92500305175781a5,5 0 0 1 5,5v10.980000495910645a5,5 0 0 1 -5,5h-93.92500305175781a5,5 0 0 1 -5,-5v-10.980000495910645a5,5 0 0 1 5,-5z" style="stroke: rgb(51, 51, 51); fill: none; stroke-width: 1px;"/></g></g><g id="node-name-Conv_5(Conv2d)" class="node graph-node" style="opacity: 1;" transform="translate(51.962501525878906,507.86500358581543)"><g transform="translate(-50,-26.875)"><g class="node-item node-item-type" transform="translate(0,0)"><path d="M5,0h90a5,5 0 0 1 5,5v15.980000495910645a0,0 0 0 1 0,0h-100a0,0 0 0 1 0,0v-15.980000495910645a5,5 0 0 1 5,-5z" style="stroke: rgb(0, 0, 0); fill: rgb(0, 0, 0); stroke-width: 0px;"/><text x="6" y="14.28499984741211" style="font-family: -apple-system, BlinkMacSystemFont, &quot;Segoe WPC&quot;, &quot;Segoe UI&quot;, &quot;Ubuntu&quot;, &quot;Droid Sans&quot;, sans-serif, &quot;PingFang SC&quot;; font-size: 11px; text-rendering: geometricprecision; fill: rgb(255, 255, 255);">Conv2D</text><title>Conv_5(Conv2d)</title></g><g class="node-attribute" transform="translate(0,20.980000495910645)"><path d="M0,0h100a0,0 0 0 1 0,0v27.770000457763672a5,5 0 0 1 -5,5h-90a5,5 0 0 1 -5,-5v-27.770000457763672a0,0 0 0 1 0,0z" style="stroke: rgb(0, 0, 0); fill: rgb(255, 255, 255); stroke-width: 0px;"/><text id="initializer-Constant_1" xml:space="preserve" x="6" y="12.6850004196167" style="font-family: -apple-system, BlinkMacSystemFont, &quot;Segoe WPC&quot;, &quot;Segoe UI&quot;, &quot;Ubuntu&quot;, &quot;Droid Sans&quot;, sans-serif, &quot;PingFang SC&quot;; font-size: 9px; font-weight: normal; text-rendering: geometricprecision;"><title>float32[10,64,3,3]</title><tspan style="font-weight: bold;">1</tspan><tspan>〈10×64×3×3〉</tspan></text><text id="initializer-Constant_0" xml:space="preserve" x="6" y="26.070000648498535" style="font-family: -apple-system, BlinkMacSystemFont, &quot;Segoe WPC&quot;, &quot;Segoe UI&quot;, &quot;Ubuntu&quot;, &quot;Droid Sans&quot;, sans-serif, &quot;PingFang SC&quot;; font-size: 9px; font-weight: normal; text-rendering: geometricprecision;"><title>float32[10]</title><tspan style="font-weight: bold;">2</tspan><tspan>〈10〉</tspan></text><line class="node" x1="0" x2="100" y1="0" y2="0" style="stroke: rgb(51, 51, 51); fill: none; stroke-width: 1px;"/></g><path class="node border" d="M5,0h90a5,5 0 0 1 5,5v43.750000953674316a5,5 0 0 1 -5,5h-90a5,5 0 0 1 -5,-5v-43.750000953674316a5,5 0 0 1 5,-5z" style="stroke: rgb(51, 51, 51); fill: none; stroke-width: 1px;"/></g></g><g id="node-name-AveragePool_8.reduce_mean(Pool)" class="node graph-node" style="opacity: 1;" transform="translate(51.962501525878906,587.0300035476685)"><g transform="translate(-51.962501525878906,-10.489999771118164)"><g class="node-item node-item-type" transform="translate(0,0)"><path d="M5,0h93.92500305175781a5,5 0 0 1 5,5v10.980000495910645a5,5 0 0 1 -5,5h-93.92500305175781a5,5 0 0 1 -5,-5v-10.980000495910645a5,5 0 0 1 5,-5z" style="stroke: rgb(0, 0, 0); fill: rgb(0, 0, 0); stroke-width: 0px;"/><text x="6" y="14.28499984741211" style="font-family: -apple-system, BlinkMacSystemFont, &quot;Segoe WPC&quot;, &quot;Segoe UI&quot;, &quot;Ubuntu&quot;, &quot;Droid Sans&quot;, sans-serif, &quot;PingFang SC&quot;; font-size: 11px; text-rendering: geometricprecision; fill: rgb(255, 255, 255);">ReduceWindow2D</text><title>AveragePool_8.reduce_mean(Pool)</title></g><path class="node border" d="M5,0h93.92500305175781a5,5 0 0 1 5,5v10.980000495910645a5,5 0 0 1 -5,5h-93.92500305175781a5,5 0 0 1 -5,-5v-10.980000495910645a5,5 0 0 1 5,-5z" style="stroke: rgb(51, 51, 51); fill: none; stroke-width: 1px;"/></g></g><g id="node-name-Flatten_9(Flatten)" class="node graph-node" style="opacity: 1;" transform="translate(51.962501525878906,649.8100032806396)"><g transform="translate(-23.52750015258789,-10.489999771118164)"><g class="node-item node-item-type" transform="translate(0,0)"><path d="M5,0h37.05500030517578a5,5 0 0 1 5,5v10.980000495910645a5,5 0 0 1 -5,5h-37.05500030517578a5,5 0 0 1 -5,-5v-10.980000495910645a5,5 0 0 1 5,-5z" style="stroke: rgb(0, 0, 0); fill: rgb(0, 0, 0); stroke-width: 0px;"/><text x="6" y="14.28499984741211" style="font-family: -apple-system, BlinkMacSystemFont, &quot;Segoe WPC&quot;, &quot;Segoe UI&quot;, &quot;Ubuntu&quot;, &quot;Droid Sans&quot;, sans-serif, &quot;PingFang SC&quot;; font-size: 11px; text-rendering: geometricprecision; fill: rgb(255, 255, 255);">Bitcast</text><title>Flatten_9(Flatten)</title></g><path class="node border" d="M5,0h37.05500030517578a5,5 0 0 1 5,5v10.980000495910645a5,5 0 0 1 -5,5h-37.05500030517578a5,5 0 0 1 -5,-5v-10.980000495910645a5,5 0 0 1 5,-5z" style="stroke: rgb(51, 51, 51); fill: none; stroke-width: 1px;"/></g></g><g id="node-name-Softmax_10.max(Softmax)" class="node graph-node" style="opacity: 1;" transform="translate(86.78750133514404,713.0000033378601)"><g transform="translate(-25.149999618530273,-10.489999771118164)"><g class="node-item node-item-type" transform="translate(0,0)"><path d="M5,0h40.29999923706055a5,5 0 0 1 5,5v10.980000495910645a5,5 0 0 1 -5,5h-40.29999923706055a5,5 0 0 1 -5,-5v-10.980000495910645a5,5 0 0 1 5,-5z" style="stroke: rgb(0, 0, 0); fill: rgb(0, 0, 0); stroke-width: 0px;"/><text x="6" y="14.28499984741211" style="font-family: -apple-system, BlinkMacSystemFont, &quot;Segoe WPC&quot;, &quot;Segoe UI&quot;, &quot;Ubuntu&quot;, &quot;Droid Sans&quot;, sans-serif, &quot;PingFang SC&quot;; font-size: 11px; text-rendering: geometricprecision; fill: rgb(255, 255, 255);">Reduce</text><title>Softmax_10.max(Softmax)</title></g><path class="node border" d="M5,0h40.29999923706055a5,5 0 0 1 5,5v10.980000495910645a5,5 0 0 1 -5,5h-40.29999923706055a5,5 0 0 1 -5,-5v-10.980000495910645a5,5 0 0 1 5,-5z" style="stroke: rgb(51, 51, 51); fill: none; stroke-width: 1px;"/></g></g><g id="node-name-Softmax_10.sub(Softmax)" class="node graph-node" style="opacity: 1;" transform="translate(51.962501525878906,776.1900033950806)"><g transform="translate(-22.895000457763672,-10.489999771118164)"><g class="node-item node-item-type" transform="translate(0,0)"><path d="M5,0h35.790000915527344a5,5 0 0 1 5,5v10.980000495910645a5,5 0 0 1 -5,5h-35.790000915527344a5,5 0 0 1 -5,-5v-10.980000495910645a5,5 0 0 1 5,-5z" style="stroke: rgb(0, 0, 0); fill: rgb(0, 0, 0); stroke-width: 0px;"/><text x="6" y="14.28499984741211" style="font-family: -apple-system, BlinkMacSystemFont, &quot;Segoe WPC&quot;, &quot;Segoe UI&quot;, &quot;Ubuntu&quot;, &quot;Droid Sans&quot;, sans-serif, &quot;PingFang SC&quot;; font-size: 11px; text-rendering: geometricprecision; fill: rgb(255, 255, 255);">Binary</text><title>Softmax_10.sub(Softmax)</title></g><path class="node border" d="M5,0h35.790000915527344a5,5 0 0 1 5,5v10.980000495910645a5,5 0 0 1 -5,5h-35.790000915527344a5,5 0 0 1 -5,-5v-10.980000495910645a5,5 0 0 1 5,-5z" style="stroke: rgb(51, 51, 51); fill: none; stroke-width: 1px;"/></g></g><g id="node-name-Softmax_10.exp(Softmax)" class="node graph-node" style="opacity: 1;" transform="translate(51.962501525878906,838.9700031280518)"><g transform="translate(-21.904998779296875,-10.489999771118164)"><g class="node-item node-item-type" transform="translate(0,0)"><path d="M5,0h33.80999946594238a5,5 0 0 1 5,5v10.980000495910645a5,5 0 0 1 -5,5h-33.80999946594238a5,5 0 0 1 -5,-5v-10.980000495910645a5,5 0 0 1 5,-5z" style="stroke: rgb(0, 0, 0); fill: rgb(0, 0, 0); stroke-width: 0px;"/><text x="6" y="14.28499984741211" style="font-family: -apple-system, BlinkMacSystemFont, &quot;Segoe WPC&quot;, &quot;Segoe UI&quot;, &quot;Ubuntu&quot;, &quot;Droid Sans&quot;, sans-serif, &quot;PingFang SC&quot;; font-size: 11px; text-rendering: geometricprecision; fill: rgb(255, 255, 255);">Unary</text><title>Softmax_10.exp(Softmax)</title></g><path class="node border" d="M5,0h33.80999946594238a5,5 0 0 1 5,5v10.980000495910645a5,5 0 0 1 -5,5h-33.80999946594238a5,5 0 0 1 -5,-5v-10.980000495910645a5,5 0 0 1 5,-5z" style="stroke: rgb(51, 51, 51); fill: none; stroke-width: 1px;"/></g></g><g id="node-name-Softmax_10.sum(Softmax)" class="node graph-node" style="opacity: 1;" transform="translate(86.78750133514404,902.1600031852722)"><g transform="translate(-25.149999618530273,-10.489999771118164)"><g class="node-item node-item-type" transform="translate(0,0)"><path d="M5,0h40.29999923706055a5,5 0 0 1 5,5v10.980000495910645a5,5 0 0 1 -5,5h-40.29999923706055a5,5 0 0 1 -5,-5v-10.980000495910645a5,5 0 0 1 5,-5z" style="stroke: rgb(0, 0, 0); fill: rgb(0, 0, 0); stroke-width: 0px;"/><text x="6" y="14.28499984741211" style="font-family: -apple-system, BlinkMacSystemFont, &quot;Segoe WPC&quot;, &quot;Segoe UI&quot;, &quot;Ubuntu&quot;, &quot;Droid Sans&quot;, sans-serif, &quot;PingFang SC&quot;; font-size: 11px; text-rendering: geometricprecision; fill: rgb(255, 255, 255);">Reduce</text><title>Softmax_10.sum(Softmax)</title></g><path class="node border" d="M5,0h40.29999923706055a5,5 0 0 1 5,5v10.980000495910645a5,5 0 0 1 -5,5h-40.29999923706055a5,5 0 0 1 -5,-5v-10.980000495910645a5,5 0 0 1 5,-5z" style="stroke: rgb(51, 51, 51); fill: none; stroke-width: 1px;"/></g></g><g id="node-name-Softmax_10.div(Softmax)" class="node graph-node" style="opacity: 1;" transform="translate(51.962501525878906,965.3500032424927)"><g transform="translate(-22.895000457763672,-10.489999771118164)"><g class="node-item node-item-type" transform="translate(0,0)"><path d="M5,0h35.790000915527344a5,5 0 0 1 5,5v10.980000495910645a5,5 0 0 1 -5,5h-35.790000915527344a5,5 0 0 1 -5,-5v-10.980000495910645a5,5 0 0 1 5,-5z" style="stroke: rgb(0, 0, 0); fill: rgb(0, 0, 0); stroke-width: 0px;"/><text x="6" y="14.28499984741211" style="font-family: -apple-system, BlinkMacSystemFont, &quot;Segoe WPC&quot;, &quot;Segoe UI&quot;, &quot;Ubuntu&quot;, &quot;Droid Sans&quot;, sans-serif, &quot;PingFang SC&quot;; font-size: 11px; text-rendering: geometricprecision; fill: rgb(255, 255, 255);">Binary</text><title>Softmax_10.div(Softmax)</title></g><path class="node border" d="M5,0h35.790000915527344a5,5 0 0 1 5,5v10.980000495910645a5,5 0 0 1 -5,5h-35.790000915527344a5,5 0 0 1 -5,-5v-10.980000495910645a5,5 0 0 1 5,-5z" style="stroke: rgb(51, 51, 51); fill: none; stroke-width: 1px;"/></g></g><g id="node-name-Log_11(unary_log)" class="node graph-node" style="opacity: 1;" transform="translate(51.962501525878906,1028.1300029754639)"><g transform="translate(-21.904998779296875,-10.489999771118164)"><g class="node-item node-item-type" transform="translate(0,0)"><path d="M5,0h33.80999946594238a5,5 0 0 1 5,5v10.980000495910645a5,5 0 0 1 -5,5h-33.80999946594238a5,5 0 0 1 -5,-5v-10.980000495910645a5,5 0 0 1 5,-5z" style="stroke: rgb(0, 0, 0); fill: rgb(0, 0, 0); stroke-width: 0px;"/><text x="6" y="14.28499984741211" style="font-family: -apple-system, BlinkMacSystemFont, &quot;Segoe WPC&quot;, &quot;Segoe UI&quot;, &quot;Ubuntu&quot;, &quot;Droid Sans&quot;, sans-serif, &quot;PingFang SC&quot;; font-size: 11px; text-rendering: geometricprecision; fill: rgb(255, 255, 255);">Unary</text><title>Log_11(unary_log)</title></g><path class="node border" d="M5,0h33.80999946594238a5,5 0 0 1 5,5v10.980000495910645a5,5 0 0 1 -5,5h-33.80999946594238a5,5 0 0 1 -5,-5v-10.980000495910645a5,5 0 0 1 5,-5z" style="stroke: rgb(51, 51, 51); fill: none; stroke-width: 1px;"/></g></g><g id="input-name-img" class="node graph-input" style="opacity: 1;" transform="matrix(1, 0, 0, 1, 51.9625, 10.49)"><g transform="translate(-16.212499618530273,-10.489999771118164)"><g class="node-item graph-item-input" transform="translate(0,0)"><path d="M5,0h22.424999237060547a5,5 0 0 1 5,5v10.980000495910645a5,5 0 0 1 -5,5h-22.424999237060547a5,5 0 0 1 -5,-5v-10.980000495910645a5,5 0 0 1 5,-5z" style="stroke: rgb(0, 0, 0); fill: rgb(238, 238, 238); stroke-width: 0px;"/><text x="6" y="14.28499984741211" style="font-family: -apple-system, BlinkMacSystemFont, &quot;Segoe WPC&quot;, &quot;Segoe UI&quot;, &quot;Ubuntu&quot;, &quot;Droid Sans&quot;, sans-serif, &quot;PingFang SC&quot;; font-size: 11px; text-rendering: geometricprecision;">img</text><title>float32[1,1,28,28]</title></g><path class="node border" d="M5,0h22.424999237060547a5,5 0 0 1 5,5v10.980000495910645a5,5 0 0 1 -5,5h-22.424999237060547a5,5 0 0 1 -5,-5v-10.980000495910645a5,5 0 0 1 5,-5z" style="stroke: rgb(51, 51, 51); fill: none; stroke-width: 1px;"/></g></g><g class="node" style="opacity: 1;" transform="translate(51.962501525878906,1090.910002708435)"><g transform="translate(-17.807498931884766,-10.489999771118164)"><g class="node-item graph-item-output" transform="translate(0,0)"><path d="M5,0h25.614999771118164a5,5 0 0 1 5,5v10.980000495910645a5,5 0 0 1 -5,5h-25.614999771118164a5,5 0 0 1 -5,-5v-10.980000495910645a5,5 0 0 1 5,-5z" style="stroke: rgb(0, 0, 0); fill: rgb(238, 238, 238); stroke-width: 0px;"/><text x="6" y="14.28499984741211" style="font-family: -apple-system, BlinkMacSystemFont, &quot;Segoe WPC&quot;, &quot;Segoe UI&quot;, &quot;Ubuntu&quot;, &quot;Droid Sans&quot;, sans-serif, &quot;PingFang SC&quot;; font-size: 11px; text-rendering: geometricprecision;">digit</text><title>float32[1,10]</title></g><path class="node border" d="M5,0h25.614999771118164a5,5 0 0 1 5,5v10.980000495910645a5,5 0 0 1 -5,5h-25.614999771118164a5,5 0 0 1 -5,-5v-10.980000495910645a5,5 0 0 1 5,-5z" style="stroke: rgb(51, 51, 51); fill: none; stroke-width: 1px;"/></g></g></g></g></svg>