<svg xmlns="http://www.w3.org/2000/svg" id="export" class="canvas" preserveAspectRatio="xMidYMid meet" style="position: absolute; margin: 0px;" width="127" height="1263"><rect id="background" fill="#fff" pointer-events="all" width="127" height="1263"/><g id="origin" transform="translate(5.7393745422363285, 5.7393745422363285) scale(1)"><g id="clusters" class="clusters"/><g id="edge-paths" class="edge-paths"><defs><marker id="arrowhead-vee" viewBox="0 0 10 10" refX="9" refY="5" markerUnits="strokeWidth" markerWidth="8" markerHeight="6" orient="auto" style="fill: rgb(0, 0, 0);"><path d="M 0 0 L 10 5 L 0 10 L 4 5 z" style="stroke-width: 1px;"/></marker><marker id="arrowhead-vee-select" viewBox="0 0 10 10" refX="9" refY="5" markerUnits="strokeWidth" markerWidth="8" markerHeight="6" orient="auto" style="fill: rgb(238, 0, 0);"><path d="M 0 0 L 10 5 L 0 10 L 4 5 z" style="stroke-width: 1px;"/></marker></defs><path id="edge-Pad_0" class="edge-path" d="M51.962501525878906,463.1999988555908L51.962501525878906,466.6833322048187C51.962501525878906,470.16666555404663,51.962501525878906,477.13333225250244,51.962501525878906,484.09999895095825C51.962501525878906,491.06666564941406,51.962501525878906,498.0333323478699,51.962501525878906,501.5166656970978L51.962501525878906,504.9999990463257" style="stroke: rgb(0, 0, 0); stroke-width: 1px; fill: none; marker-end: url(&quot;#arrowhead-vee&quot;);"/><path id="edge-MaxPool_4.reduce_max(Pool)" class="edge-path" d="M51.962501525878906,525.979998588562L51.962501525878906,529.4633319377899C51.962501525878906,532.9466652870178,51.962501525878906,539.9133319854736,51.962501525878906,546.8799986839294C51.962501525878906,553.8466653823853,51.962501525878906,560.8133320808411,51.962501525878906,564.296665430069L51.962501525878906,567.7799987792969" style="stroke: rgb(0, 0, 0); stroke-width: 1px; fill: none; marker-end: url(&quot;#arrowhead-vee&quot;);"/><path id="edge-Pad_1" class="edge-path" d="M51.962501525878906,684.3099985122681L51.962501525878906,687.793331861496C51.962501525878906,691.2766652107239,51.962501525878906,698.2433319091797,51.962501525878906,705.2099986076355C51.962501525878906,712.1766653060913,51.962501525878906,719.1433320045471,51.962501525878906,722.626665353775L51.962501525878906,726.1099987030029" style="stroke: rgb(0, 0, 0); stroke-width: 1px; fill: none; marker-end: url(&quot;#arrowhead-vee&quot;);"/><path id="edge-AveragePool_8.reduce_mean(Pool)" class="edge-path" d="M51.962501525878906,747.0899982452393L51.962501525878906,750.5733315944672C51.962501525878906,754.0566649436951,51.962501525878906,761.0233316421509,51.962501525878906,767.9899983406067C51.962501525878906,774.9566650390625,51.962501525878906,781.9233317375183,51.962501525878906,785.4066650867462L51.962501525878906,788.8899984359741" style="stroke: rgb(0, 0, 0); stroke-width: 1px; fill: none; marker-end: url(&quot;#arrowhead-vee&quot;);"/><path id="edge-Flatten_9(Flatten)" class="edge-path" d="M63.60041938450303,809.8699979782104L67.4649330429432,813.3533313274384C71.32944670138336,816.8366646766663,79.05847401826371,823.8033313751221,82.92298767670387,830.8383314609528C86.78750133514404,837.8733315467834,86.78750133514404,844.976665019989,86.78750133514404,848.5283317565918L86.78750133514404,852.0799984931946" style="stroke: rgb(0, 0, 0); stroke-width: 1px; fill: none; marker-end: url(&quot;#arrowhead-vee&quot;);"/><path id="edge-Flatten_9(Flatten)" class="edge-path" d="M40.324583667254785,809.8699979782104L36.46007000881462,813.3533313274384C32.595556350374444,816.8366646766663,24.866529033494107,823.8033313751221,21.00201537505394,832.5866647561392C17.13750171661377,841.3699981371561,17.13750171661377,851.9699982007345,17.13750171661377,862.5699982643127C17.13750171661377,873.169998327891,17.13750171661377,883.7699983914694,21.00201537505394,892.5533317724863C24.866529033494107,901.3366651535034,32.595556350374444,908.3033318519592,36.46007000881462,911.7866652011871L40.324583667254785,915.269998550415" style="stroke: rgb(0, 0, 0); stroke-width: 1px; fill: none; marker-end: url(&quot;#arrowhead-vee&quot;);"/><path id="edge-Softmax_10.max(Softmax)" class="edge-path" d="M86.78750133514404,873.0599980354309L86.78750133514404,876.6116647720337C86.78750133514404,880.1633315086365,86.78750133514404,887.266664981842,82.92298767670387,894.3016650676727C79.05847401826371,901.3366651535034,71.32944670138336,908.3033318519592,67.4649330429432,911.7866652011871L63.60041938450303,915.269998550415" style="stroke: rgb(0, 0, 0); stroke-width: 1px; fill: none; marker-end: url(&quot;#arrowhead-vee&quot;);"/><path id="edge-Softmax_10.sub(Softmax)" class="edge-path" d="M51.962501525878906,936.2499980926514L51.962501525878906,939.7333314418793C51.962501525878906,943.2166647911072,51.962501525878906,950.183331489563,51.962501525878906,957.1499981880188C51.962501525878906,964.1166648864746,51.962501525878906,971.0833315849304,51.962501525878906,974.5666649341583L51.962501525878906,978.0499982833862" style="stroke: rgb(0, 0, 0); stroke-width: 1px; fill: none; marker-end: url(&quot;#arrowhead-vee&quot;);"/><path id="edge-output_F" class="edge-path" d="M63.60041938450303,999.0299978256226L67.4649330429432,1002.5133311748505C71.32944670138336,1005.9966645240784,79.05847401826371,1012.9633312225342,82.92298767670387,1019.9983313083649C86.78750133514404,1027.0333313941956,86.78750133514404,1034.1366648674011,86.78750133514404,1037.688331604004L86.78750133514404,1041.2399983406067" style="stroke: rgb(0, 0, 0); stroke-width: 1px; fill: none; marker-end: url(&quot;#arrowhead-vee&quot;);"/><path id="edge-output_F" class="edge-path" d="M40.324583667254785,999.0299978256226L36.46007000881462,1002.5133311748505C32.595556350374444,1005.9966645240784,24.866529033494107,1012.9633312225342,21.00201537505394,1021.7466646035513C17.13750171661377,1030.5299979845684,17.13750171661377,1041.1299980481465,17.13750171661377,1051.7299981117249C17.13750171661377,1062.3299981753032,17.13750171661377,1072.9299982388814,21.00201537505394,1081.7133316198986C24.866529033494107,1090.4966650009155,32.595556350374444,1097.4633316993713,36.46007000881462,1100.9466650485992L40.324583667254785,1104.4299983978271" style="stroke: rgb(0, 0, 0); stroke-width: 1px; fill: none; marker-end: url(&quot;#arrowhead-vee&quot;);"/><path id="edge-Softmax_10.sum(Softmax)" class="edge-path" d="M86.78750133514404,1062.219997882843L86.78750133514404,1065.7716646194458C86.78750133514404,1069.3233313560486,86.78750133514404,1076.4266648292542,82.92298767670387,1083.4616649150848C79.05847401826371,1090.4966650009155,71.32944670138336,1097.4633316993713,67.4649330429432,1100.9466650485992L63.60041938450303,1104.4299983978271" style="stroke: rgb(0, 0, 0); stroke-width: 1px; fill: none; marker-end: url(&quot;#arrowhead-vee&quot;);"/><path id="edge-Softmax_10.div(Softmax)" class="edge-path" d="M51.962501525878906,1125.4099979400635L51.962501525878906,1128.8933312892914C51.962501525878906,1132.3766646385193,51.962501525878906,1139.343331336975,51.962501525878906,1146.309998035431C51.962501525878906,1153.2766647338867,51.962501525878906,1160.2433314323425,51.962501525878906,1163.7266647815704L51.962501525878906,1167.2099981307983" style="stroke: rgb(0, 0, 0); stroke-width: 1px; fill: none; marker-end: url(&quot;#arrowhead-vee&quot;);"/><path id="edge-img" class="edge-path" d="M51.962501525878906,20.979999542236328L51.962501525878906,24.463332891464233C51.962501525878906,27.94666624069214,51.962501525878906,34.91333293914795,51.962501525878906,41.87999963760376C51.962501525878906,48.84666633605957,51.962501525878906,55.81333303451538,51.962501525878906,59.296666383743286L51.962501525878906,62.77999973297119" style="stroke: rgb(0, 0, 0); stroke-width: 1px; fill: none; marker-end: url(&quot;#arrowhead-vee&quot;);"/><path id="edge-Conv_0(Conv2d)" class="edge-path" d="M51.962501525878906,116.52999973297119L51.962501525878906,120.0133330821991C51.962501525878906,123.496666431427,51.962501525878906,130.4633331298828,51.962501525878906,137.42999982833862C51.962501525878906,144.39666652679443,51.962501525878906,151.36333322525024,51.962501525878906,154.84666657447815L51.962501525878906,158.32999992370605" style="stroke: rgb(0, 0, 0); stroke-width: 1px; fill: none; marker-end: url(&quot;#arrowhead-vee&quot;);"/><path id="edge-Pad" class="edge-path" d="M51.962501525878906,242.08999919891357L51.962501525878906,245.57333254814148C51.962501525878906,249.05666589736938,51.962501525878906,256.0233325958252,51.962501525878906,262.989999294281C51.962501525878906,269.9566659927368,51.962501525878906,276.9233326911926,51.962501525878906,280.40666604042053L51.962501525878906,283.88999938964844" style="stroke: rgb(0, 0, 0); stroke-width: 1px; fill: none; marker-end: url(&quot;#arrowhead-vee&quot;);"/><path id="edge-Conv_2(Conv2d)" class="edge-path" d="M51.962501525878906,337.63999938964844L51.962501525878906,341.12333273887634C51.962501525878906,344.60666608810425,51.962501525878906,351.57333278656006,51.962501525878906,358.53999948501587C51.962501525878906,365.5066661834717,51.962501525878906,372.4733328819275,51.962501525878906,375.9566662311554L51.962501525878906,379.4399995803833" style="stroke: rgb(0, 0, 0); stroke-width: 1px; fill: none; marker-end: url(&quot;#arrowhead-vee&quot;);"/><path id="edge-Conv_5(Conv2d)" class="edge-path" d="M51.962501525878906,621.5299987792969L51.962501525878906,625.0133321285248C51.962501525878906,628.4966654777527,51.962501525878906,635.4633321762085,51.962501525878906,642.4299988746643C51.962501525878906,649.3966655731201,51.962501525878906,656.3633322715759,51.962501525878906,659.8466656208038L51.962501525878906,663.3299989700317" style="stroke: rgb(0, 0, 0); stroke-width: 1px; fill: none; marker-end: url(&quot;#arrowhead-vee&quot;);"/><path id="edge-output_F_1" class="edge-path" d="M51.962501525878906,179.30999946594238L51.962501525878906,182.7933328151703C51.962501525878906,186.2766661643982,51.962501525878906,193.243332862854,51.962501525878906,200.20999956130981C51.962501525878906,207.17666625976562,51.962501525878906,214.14333295822144,51.962501525878906,217.62666630744934L51.962501525878906,221.10999965667725" style="stroke: rgb(0, 0, 0); stroke-width: 1px; fill: none; marker-end: url(&quot;#arrowhead-vee&quot;);"/><path id="edge-output_F_2" class="edge-path" d="M51.962501525878906,400.41999912261963L51.962501525878906,403.90333247184753C51.962501525878906,407.38666582107544,51.962501525878906,414.35333251953125,51.962501525878906,421.31999921798706C51.962501525878906,428.28666591644287,51.962501525878906,435.2533326148987,51.962501525878906,438.7366659641266L51.962501525878906,442.2199993133545" style="stroke: rgb(0, 0, 0); stroke-width: 1px; fill: none; marker-end: url(&quot;#arrowhead-vee&quot;);"/><path id="edge-digit" class="edge-path" d="M51.962501525878906,1188.1899976730347L51.962501525878906,1191.6733310222626C51.962501525878906,1195.1566643714905,51.962501525878906,1202.1233310699463,51.962501525878906,1209.089997768402C51.962501525878906,1216.056664466858,51.962501525878906,1223.0233311653137,51.962501525878906,1226.5066645145416L51.962501525878906,1229.9899978637695" style="stroke: rgb(0, 0, 0); stroke-width: 1px; fill: none; marker-end: url(&quot;#arrowhead-vee&quot;);"/></g><g id="edge-labels" class="edge-labels"><g style="opacity: 1;" class="edge-label" id="edge-label-edge-Pad_0" transform="translate(84.4625015258789,484.09999895095825)"><g transform="translate(-27.5,-5.900000095367432)"><text style="font-family: -apple-system, BlinkMacSystemFont, &quot;Segoe WPC&quot;, &quot;Segoe UI&quot;, &quot;Ubuntu&quot;, &quot;Droid Sans&quot;, sans-serif, &quot;PingFang SC&quot;; font-size: 10px;"><tspan xml:space="preserve" dy="1em" x="1">1×64×24×24</tspan></text></g></g><g style="opacity: 1;" class="edge-label" id="edge-label-edge-MaxPool_4.reduce_max(Pool)" transform="translate(78.9625015258789,546.8799986839294)"><g transform="translate(-22,-5.900000095367432)"><text style="font-family: -apple-system, BlinkMacSystemFont, &quot;Segoe WPC&quot;, &quot;Segoe UI&quot;, &quot;Ubuntu&quot;, &quot;Droid Sans&quot;, sans-serif, &quot;PingFang SC&quot;; font-size: 10px;"><tspan xml:space="preserve" dy="1em" x="1">1×64×6×6</tspan></text></g></g><g style="opacity: 1;" class="edge-label" id="edge-label-edge-Pad_1" transform="translate(78.9625015258789,705.2099986076355)"><g transform="translate(-22,-5.900000095367432)"><text style="font-family: -apple-system, BlinkMacSystemFont, &quot;Segoe WPC&quot;, &quot;Segoe UI&quot;, &quot;Ubuntu&quot;, &quot;Droid Sans&quot;, sans-serif, &quot;PingFang SC&quot;; font-size: 10px;"><tspan xml:space="preserve" dy="1em" x="1">1×10×4×4</tspan></text></g></g><g style="opacity: 1;" class="edge-label" id="edge-label-edge-AveragePool_8.reduce_mean(Pool)" transform="translate(78.9625015258789,767.9899983406067)"><g transform="translate(-22,-5.900000095367432)"><text style="font-family: -apple-system, BlinkMacSystemFont, &quot;Segoe WPC&quot;, &quot;Segoe UI&quot;, &quot;Ubuntu&quot;, &quot;Droid Sans&quot;, sans-serif, &quot;PingFang SC&quot;; font-size: 10px;"><tspan xml:space="preserve" dy="1em" x="1">1×10×1×1</tspan></text></g></g><g style="opacity: 1;" class="edge-label" id="edge-label-edge-Flatten_9(Flatten)" transform="translate(102.78750133514404,830.7699980735779)"><g transform="translate(-11,-5.900000095367432)"><text style="font-family: -apple-system, BlinkMacSystemFont, &quot;Segoe WPC&quot;, &quot;Segoe UI&quot;, &quot;Ubuntu&quot;, &quot;Droid Sans&quot;, sans-serif, &quot;PingFang SC&quot;; font-size: 10px;"><tspan xml:space="preserve" dy="1em" x="1">1×10</tspan></text></g></g><g style="opacity: 1;" class="edge-label" id="edge-label-edge-Flatten_9(Flatten)" transform="translate(33.13750171661377,862.5699982643127)"><g transform="translate(-11,-5.900000095367432)"><text style="font-family: -apple-system, BlinkMacSystemFont, &quot;Segoe WPC&quot;, &quot;Segoe UI&quot;, &quot;Ubuntu&quot;, &quot;Droid Sans&quot;, sans-serif, &quot;PingFang SC&quot;; font-size: 10px;"><tspan xml:space="preserve" dy="1em" x="1">1×10</tspan></text></g></g><g style="opacity: 1;" class="edge-label" id="edge-label-edge-Softmax_10.max(Softmax)" transform="translate(100.03750133514404,894.3699984550476)"><g transform="translate(-8.25,-5.900000095367432)"><text style="font-family: -apple-system, BlinkMacSystemFont, &quot;Segoe WPC&quot;, &quot;Segoe UI&quot;, &quot;Ubuntu&quot;, &quot;Droid Sans&quot;, sans-serif, &quot;PingFang SC&quot;; font-size: 10px;"><tspan xml:space="preserve" dy="1em" x="1">1×1</tspan></text></g></g><g style="opacity: 1;" class="edge-label" id="edge-label-edge-Softmax_10.sub(Softmax)" transform="translate(67.9625015258789,957.1499981880188)"><g transform="translate(-11,-5.900000095367432)"><text style="font-family: -apple-system, BlinkMacSystemFont, &quot;Segoe WPC&quot;, &quot;Segoe UI&quot;, &quot;Ubuntu&quot;, &quot;Droid Sans&quot;, sans-serif, &quot;PingFang SC&quot;; font-size: 10px;"><tspan xml:space="preserve" dy="1em" x="1">1×10</tspan></text></g></g><g style="opacity: 1;" class="edge-label" id="edge-label-edge-output_F" transform="translate(102.78750133514404,1019.92999792099)"><g transform="translate(-11,-5.900000095367432)"><text style="font-family: -apple-system, BlinkMacSystemFont, &quot;Segoe WPC&quot;, &quot;Segoe UI&quot;, &quot;Ubuntu&quot;, &quot;Droid Sans&quot;, sans-serif, &quot;PingFang SC&quot;; font-size: 10px;"><tspan xml:space="preserve" dy="1em" x="1">1×10</tspan></text></g></g><g style="opacity: 1;" class="edge-label" id="edge-label-edge-output_F" transform="translate(33.13750171661377,1051.7299981117249)"><g transform="translate(-11,-5.900000095367432)"><text style="font-family: -apple-system, BlinkMacSystemFont, &quot;Segoe WPC&quot;, &quot;Segoe UI&quot;, &quot;Ubuntu&quot;, &quot;Droid Sans&quot;, sans-serif, &quot;PingFang SC&quot;; font-size: 10px;"><tspan xml:space="preserve" dy="1em" x="1">1×10</tspan></text></g></g><g style="opacity: 1;" class="edge-label" id="edge-label-edge-Softmax_10.sum(Softmax)" transform="translate(100.03750133514404,1083.5299983024597)"><g transform="translate(-8.25,-5.900000095367432)"><text style="font-family: -apple-system, BlinkMacSystemFont, &quot;Segoe WPC&quot;, &quot;Segoe UI&quot;, &quot;Ubuntu&quot;, &quot;Droid Sans&quot;, sans-serif, &quot;PingFang SC&quot;; font-size: 10px;"><tspan xml:space="preserve" dy="1em" x="1">1×1</tspan></text></g></g><g style="opacity: 1;" class="edge-label" id="edge-label-edge-Softmax_10.div(Softmax)" transform="translate(67.9625015258789,1146.309998035431)"><g transform="translate(-11,-5.900000095367432)"><text style="font-family: -apple-system, BlinkMacSystemFont, &quot;Segoe WPC&quot;, &quot;Segoe UI&quot;, &quot;Ubuntu&quot;, &quot;Droid Sans&quot;, sans-serif, &quot;PingFang SC&quot;; font-size: 10px;"><tspan xml:space="preserve" dy="1em" x="1">1×10</tspan></text></g></g><g style="opacity: 1;" class="edge-label" id="edge-label-edge-img" transform="translate(81.7125015258789,41.87999963760376)"><g transform="translate(-24.75,-5.900000095367432)"><text style="font-family: -apple-system, BlinkMacSystemFont, &quot;Segoe WPC&quot;, &quot;Segoe UI&quot;, &quot;Ubuntu&quot;, &quot;Droid Sans&quot;, sans-serif, &quot;PingFang SC&quot;; font-size: 10px;"><tspan xml:space="preserve" dy="1em" x="1">1×1×28×28</tspan></text></g></g><g style="opacity: 1;" class="edge-label" id="edge-label-edge-Conv_0(Conv2d)" transform="translate(84.4625015258789,137.42999982833862)"><g transform="translate(-27.5,-5.900000095367432)"><text style="font-family: -apple-system, BlinkMacSystemFont, &quot;Segoe WPC&quot;, &quot;Segoe UI&quot;, &quot;Ubuntu&quot;, &quot;Droid Sans&quot;, sans-serif, &quot;PingFang SC&quot;; font-size: 10px;"><tspan xml:space="preserve" dy="1em" x="1">1×32×28×28</tspan></text></g></g><g style="opacity: 1;" class="edge-label" id="edge-label-edge-Pad" transform="translate(84.4625015258789,262.989999294281)"><g transform="translate(-27.5,-5.900000095367432)"><text style="font-family: -apple-system, BlinkMacSystemFont, &quot;Segoe WPC&quot;, &quot;Segoe UI&quot;, &quot;Ubuntu&quot;, &quot;Droid Sans&quot;, sans-serif, &quot;PingFang SC&quot;; font-size: 10px;"><tspan xml:space="preserve" dy="1em" x="1">1×32×26×26</tspan></text></g></g><g style="opacity: 1;" class="edge-label" id="edge-label-edge-Conv_2(Conv2d)" transform="translate(84.4625015258789,358.53999948501587)"><g transform="translate(-27.5,-5.900000095367432)"><text style="font-family: -apple-system, BlinkMacSystemFont, &quot;Segoe WPC&quot;, &quot;Segoe UI&quot;, &quot;Ubuntu&quot;, &quot;Droid Sans&quot;, sans-serif, &quot;PingFang SC&quot;; font-size: 10px;"><tspan xml:space="preserve" dy="1em" x="1">1×64×26×26</tspan></text></g></g><g style="opacity: 1;" class="edge-label" id="edge-label-edge-Conv_5(Conv2d)" transform="translate(78.9625015258789,642.4299988746643)"><g transform="translate(-22,-5.900000095367432)"><text style="font-family: -apple-system, BlinkMacSystemFont, &quot;Segoe WPC&quot;, &quot;Segoe UI&quot;, &quot;Ubuntu&quot;, &quot;Droid Sans&quot;, sans-serif, &quot;PingFang SC&quot;; font-size: 10px;"><tspan xml:space="preserve" dy="1em" x="1">1×10×6×6</tspan></text></g></g><g style="opacity: 1;" class="edge-label" id="edge-label-edge-output_F_1" transform="translate(84.4625015258789,200.20999956130981)"><g transform="translate(-27.5,-5.900000095367432)"><text style="font-family: -apple-system, BlinkMacSystemFont, &quot;Segoe WPC&quot;, &quot;Segoe UI&quot;, &quot;Ubuntu&quot;, &quot;Droid Sans&quot;, sans-serif, &quot;PingFang SC&quot;; font-size: 10px;"><tspan xml:space="preserve" dy="1em" x="1">1×32×28×28</tspan></text></g></g><g style="opacity: 1;" class="edge-label" id="edge-label-edge-output_F_2" transform="translate(84.4625015258789,421.31999921798706)"><g transform="translate(-27.5,-5.900000095367432)"><text style="font-family: -apple-system, BlinkMacSystemFont, &quot;Segoe WPC&quot;, &quot;Segoe UI&quot;, &quot;Ubuntu&quot;, &quot;Droid Sans&quot;, sans-serif, &quot;PingFang SC&quot;; font-size: 10px;"><tspan xml:space="preserve" dy="1em" x="1">1×64×26×26</tspan></text></g></g><g style="opacity: 1;" class="edge-label" id="edge-label-edge-digit" transform="translate(67.9625015258789,1209.089997768402)"><g transform="translate(-11,-5.900000095367432)"><text style="font-family: -apple-system, BlinkMacSystemFont, &quot;Segoe WPC&quot;, &quot;Segoe UI&quot;, &quot;Ubuntu&quot;, &quot;Droid Sans&quot;, sans-serif, &quot;PingFang SC&quot;; font-size: 10px;"><tspan xml:space="preserve" dy="1em" x="1">1×10</tspan></text></g></g></g><g id="nodes" class="nodes"><g id="node-name-MaxPool_4.reduce_max(Pool)" class="node graph-node" style="opacity: 1;" transform="translate(51.962501525878906,515.4899988174438)"><g transform="translate(-51.962501525878906,-10.489999771118164)"><g class="node-item node-item-type" transform="translate(0,0)"><path d="M5,0h93.92500305175781a5,5 0 0 1 5,5v10.980000495910645a5,5 0 0 1 -5,5h-93.92500305175781a5,5 0 0 1 -5,-5v-10.980000495910645a5,5 0 0 1 5,-5z" style="stroke: rgb(0, 0, 0); fill: rgb(0, 0, 0); stroke-width: 0px;"/><text x="6" y="14.28499984741211" style="font-family: -apple-system, BlinkMacSystemFont, &quot;Segoe WPC&quot;, &quot;Segoe UI&quot;, &quot;Ubuntu&quot;, &quot;Droid Sans&quot;, sans-serif, &quot;PingFang SC&quot;; font-size: 11px; text-rendering: geometricprecision; fill: rgb(255, 255, 255);">ReduceWindow2D</text><title>MaxPool_4.reduce_max(Pool)</title></g><path class="node border" d="M5,0h93.92500305175781a5,5 0 0 1 5,5v10.980000495910645a5,5 0 0 1 -5,5h-93.92500305175781a5,5 0 0 1 -5,-5v-10.980000495910645a5,5 0 0 1 5,-5z" style="stroke: rgb(51, 51, 51); fill: none; stroke-width: 1px;"/></g></g><g id="node-name-AveragePool_8.reduce_mean(Pool)" class="node graph-node" style="opacity: 1;" transform="translate(51.962501525878906,736.5999984741211)"><g transform="translate(-51.962501525878906,-10.489999771118164)"><g class="node-item node-item-type" transform="translate(0,0)"><path d="M5,0h93.92500305175781a5,5 0 0 1 5,5v10.980000495910645a5,5 0 0 1 -5,5h-93.92500305175781a5,5 0 0 1 -5,-5v-10.980000495910645a5,5 0 0 1 5,-5z" style="stroke: rgb(0, 0, 0); fill: rgb(0, 0, 0); stroke-width: 0px;"/><text x="6" y="14.28499984741211" style="font-family: -apple-system, BlinkMacSystemFont, &quot;Segoe WPC&quot;, &quot;Segoe UI&quot;, &quot;Ubuntu&quot;, &quot;Droid Sans&quot;, sans-serif, &quot;PingFang SC&quot;; font-size: 11px; text-rendering: geometricprecision; fill: rgb(255, 255, 255);">ReduceWindow2D</text><title>AveragePool_8.reduce_mean(Pool)</title></g><path class="node border" d="M5,0h93.92500305175781a5,5 0 0 1 5,5v10.980000495910645a5,5 0 0 1 -5,5h-93.92500305175781a5,5 0 0 1 -5,-5v-10.980000495910645a5,5 0 0 1 5,-5z" style="stroke: rgb(51, 51, 51); fill: none; stroke-width: 1px;"/></g></g><g id="node-name-Flatten_9(Flatten)" class="node graph-node" style="opacity: 1;" transform="translate(51.962501525878906,799.3799982070923)"><g transform="translate(-23.52750015258789,-10.489999771118164)"><g class="node-item node-item-type" transform="translate(0,0)"><path d="M5,0h37.05500030517578a5,5 0 0 1 5,5v10.980000495910645a5,5 0 0 1 -5,5h-37.05500030517578a5,5 0 0 1 -5,-5v-10.980000495910645a5,5 0 0 1 5,-5z" style="stroke: rgb(0, 0, 0); fill: rgb(0, 0, 0); stroke-width: 0px;"/><text x="6" y="14.28499984741211" style="font-family: -apple-system, BlinkMacSystemFont, &quot;Segoe WPC&quot;, &quot;Segoe UI&quot;, &quot;Ubuntu&quot;, &quot;Droid Sans&quot;, sans-serif, &quot;PingFang SC&quot;; font-size: 11px; text-rendering: geometricprecision; fill: rgb(255, 255, 255);">Bitcast</text><title>Flatten_9(Flatten)</title></g><path class="node border" d="M5,0h37.05500030517578a5,5 0 0 1 5,5v10.980000495910645a5,5 0 0 1 -5,5h-37.05500030517578a5,5 0 0 1 -5,-5v-10.980000495910645a5,5 0 0 1 5,-5z" style="stroke: rgb(51, 51, 51); fill: none; stroke-width: 1px;"/></g></g><g id="node-name-Softmax_10.max(Softmax)" class="node graph-node" style="opacity: 1;" transform="translate(86.78750133514404,862.5699982643127)"><g transform="translate(-25.149999618530273,-10.489999771118164)"><g class="node-item node-item-type" transform="translate(0,0)"><path d="M5,0h40.29999923706055a5,5 0 0 1 5,5v10.980000495910645a5,5 0 0 1 -5,5h-40.29999923706055a5,5 0 0 1 -5,-5v-10.980000495910645a5,5 0 0 1 5,-5z" style="stroke: rgb(0, 0, 0); fill: rgb(0, 0, 0); stroke-width: 0px;"/><text x="6" y="14.28499984741211" style="font-family: -apple-system, BlinkMacSystemFont, &quot;Segoe WPC&quot;, &quot;Segoe UI&quot;, &quot;Ubuntu&quot;, &quot;Droid Sans&quot;, sans-serif, &quot;PingFang SC&quot;; font-size: 11px; text-rendering: geometricprecision; fill: rgb(255, 255, 255);">Reduce</text><title>Softmax_10.max(Softmax)</title></g><path class="node border" d="M5,0h40.29999923706055a5,5 0 0 1 5,5v10.980000495910645a5,5 0 0 1 -5,5h-40.29999923706055a5,5 0 0 1 -5,-5v-10.980000495910645a5,5 0 0 1 5,-5z" style="stroke: rgb(51, 51, 51); fill: none; stroke-width: 1px;"/></g></g><g id="node-name-Softmax_10.sub(Softmax)" class="node graph-node" style="opacity: 1;" transform="translate(51.962501525878906,925.7599983215332)"><g transform="translate(-22.895000457763672,-10.489999771118164)"><g class="node-item node-item-type" transform="translate(0,0)"><path d="M5,0h35.790000915527344a5,5 0 0 1 5,5v10.980000495910645a5,5 0 0 1 -5,5h-35.790000915527344a5,5 0 0 1 -5,-5v-10.980000495910645a5,5 0 0 1 5,-5z" style="stroke: rgb(0, 0, 0); fill: rgb(0, 0, 0); stroke-width: 0px;"/><text x="6" y="14.28499984741211" style="font-family: -apple-system, BlinkMacSystemFont, &quot;Segoe WPC&quot;, &quot;Segoe UI&quot;, &quot;Ubuntu&quot;, &quot;Droid Sans&quot;, sans-serif, &quot;PingFang SC&quot;; font-size: 11px; text-rendering: geometricprecision; fill: rgb(255, 255, 255);">Binary</text><title>Softmax_10.sub(Softmax)</title></g><path class="node border" d="M5,0h35.790000915527344a5,5 0 0 1 5,5v10.980000495910645a5,5 0 0 1 -5,5h-35.790000915527344a5,5 0 0 1 -5,-5v-10.980000495910645a5,5 0 0 1 5,-5z" style="stroke: rgb(51, 51, 51); fill: none; stroke-width: 1px;"/></g></g><g id="node-name-Softmax_10.sum(Softmax)" class="node graph-node" style="opacity: 1;" transform="translate(86.78750133514404,1051.7299981117249)"><g transform="translate(-25.149999618530273,-10.489999771118164)"><g class="node-item node-item-type" transform="translate(0,0)"><path d="M5,0h40.29999923706055a5,5 0 0 1 5,5v10.980000495910645a5,5 0 0 1 -5,5h-40.29999923706055a5,5 0 0 1 -5,-5v-10.980000495910645a5,5 0 0 1 5,-5z" style="stroke: rgb(0, 0, 0); fill: rgb(0, 0, 0); stroke-width: 0px;"/><text x="6" y="14.28499984741211" style="font-family: -apple-system, BlinkMacSystemFont, &quot;Segoe WPC&quot;, &quot;Segoe UI&quot;, &quot;Ubuntu&quot;, &quot;Droid Sans&quot;, sans-serif, &quot;PingFang SC&quot;; font-size: 11px; text-rendering: geometricprecision; fill: rgb(255, 255, 255);">Reduce</text><title>Softmax_10.sum(Softmax)</title></g><path class="node border" d="M5,0h40.29999923706055a5,5 0 0 1 5,5v10.980000495910645a5,5 0 0 1 -5,5h-40.29999923706055a5,5 0 0 1 -5,-5v-10.980000495910645a5,5 0 0 1 5,-5z" style="stroke: rgb(51, 51, 51); fill: none; stroke-width: 1px;"/></g></g><g id="node-name-Softmax_10.div(Softmax)" class="node graph-node" style="opacity: 1;" transform="translate(51.962501525878906,1114.9199981689453)"><g transform="translate(-22.895000457763672,-10.489999771118164)"><g class="node-item node-item-type" transform="translate(0,0)"><path d="M5,0h35.790000915527344a5,5 0 0 1 5,5v10.980000495910645a5,5 0 0 1 -5,5h-35.790000915527344a5,5 0 0 1 -5,-5v-10.980000495910645a5,5 0 0 1 5,-5z" style="stroke: rgb(0, 0, 0); fill: rgb(0, 0, 0); stroke-width: 0px;"/><text x="6" y="14.28499984741211" style="font-family: -apple-system, BlinkMacSystemFont, &quot;Segoe WPC&quot;, &quot;Segoe UI&quot;, &quot;Ubuntu&quot;, &quot;Droid Sans&quot;, sans-serif, &quot;PingFang SC&quot;; font-size: 11px; text-rendering: geometricprecision; fill: rgb(255, 255, 255);">Binary</text><title>Softmax_10.div(Softmax)</title></g><path class="node border" d="M5,0h35.790000915527344a5,5 0 0 1 5,5v10.980000495910645a5,5 0 0 1 -5,5h-35.790000915527344a5,5 0 0 1 -5,-5v-10.980000495910645a5,5 0 0 1 5,-5z" style="stroke: rgb(51, 51, 51); fill: none; stroke-width: 1px;"/></g></g><g id="node-name-Conv_0(Conv2d)" class="node graph-node" style="opacity: 1;" transform="translate(51.962501525878906,89.65499973297119)"><g transform="translate(-50,-26.875)"><g class="node-item node-item-type" transform="translate(0,0)"><path d="M5,0h90a5,5 0 0 1 5,5v15.980000495910645a0,0 0 0 1 0,0h-100a0,0 0 0 1 0,0v-15.980000495910645a5,5 0 0 1 5,-5z" style="stroke: rgb(0, 0, 0); fill: rgb(0, 0, 0); stroke-width: 0px;"/><text x="6" y="14.28499984741211" style="font-family: -apple-system, BlinkMacSystemFont, &quot;Segoe WPC&quot;, &quot;Segoe UI&quot;, &quot;Ubuntu&quot;, &quot;Droid Sans&quot;, sans-serif, &quot;PingFang SC&quot;; font-size: 11px; text-rendering: geometricprecision; fill: rgb(255, 255, 255);">FakeKPUConv2D</text><title>Conv_0(Conv2d)</title></g><g class="node-attribute" transform="translate(0,20.980000495910645)"><path d="M0,0h100a0,0 0 0 1 0,0v27.770000457763672a5,5 0 0 1 -5,5h-90a5,5 0 0 1 -5,-5v-27.770000457763672a0,0 0 0 1 0,0z" style="stroke: rgb(0, 0, 0); fill: rgb(255, 255, 255); stroke-width: 0px;"/><text id="initializer-Constant_5" xml:space="preserve" x="6" y="12.6850004196167" style="font-family: -apple-system, BlinkMacSystemFont, &quot;Segoe WPC&quot;, &quot;Segoe UI&quot;, &quot;Ubuntu&quot;, &quot;Droid Sans&quot;, sans-serif, &quot;PingFang SC&quot;; font-size: 9px; font-weight: normal; text-rendering: geometricprecision;"><title>float32[32,1,3,3]</title><tspan style="font-weight: bold;">1</tspan><tspan>〈32×1×3×3〉</tspan></text><text id="initializer-Constant_4" xml:space="preserve" x="6" y="26.070000648498535" style="font-family: -apple-system, BlinkMacSystemFont, &quot;Segoe WPC&quot;, &quot;Segoe UI&quot;, &quot;Ubuntu&quot;, &quot;Droid Sans&quot;, sans-serif, &quot;PingFang SC&quot;; font-size: 9px; font-weight: normal; text-rendering: geometricprecision;"><title>float32[32]</title><tspan style="font-weight: bold;">2</tspan><tspan>〈32〉</tspan></text><line class="node" x1="0" x2="100" y1="0" y2="0" style="stroke: rgb(51, 51, 51); fill: none; stroke-width: 1px;"/></g><path class="node border" d="M5,0h90a5,5 0 0 1 5,5v43.750000953674316a5,5 0 0 1 -5,5h-90a5,5 0 0 1 -5,-5v-43.750000953674316a5,5 0 0 1 5,-5z" style="stroke: rgb(51, 51, 51); fill: none; stroke-width: 1px;"/></g></g><g id="node-name-Conv_2(Conv2d)" class="node graph-node" style="opacity: 1;" transform="translate(51.962501525878906,310.76499938964844)"><g transform="translate(-50,-26.875)"><g class="node-item node-item-type" transform="translate(0,0)"><path d="M5,0h90a5,5 0 0 1 5,5v15.980000495910645a0,0 0 0 1 0,0h-100a0,0 0 0 1 0,0v-15.980000495910645a5,5 0 0 1 5,-5z" style="stroke: rgb(0, 0, 0); fill: rgb(0, 0, 0); stroke-width: 0px;"/><text x="6" y="14.28499984741211" style="font-family: -apple-system, BlinkMacSystemFont, &quot;Segoe WPC&quot;, &quot;Segoe UI&quot;, &quot;Ubuntu&quot;, &quot;Droid Sans&quot;, sans-serif, &quot;PingFang SC&quot;; font-size: 11px; text-rendering: geometricprecision; fill: rgb(255, 255, 255);">FakeKPUConv2D</text><title>Conv_2(Conv2d)</title></g><g class="node-attribute" transform="translate(0,20.980000495910645)"><path d="M0,0h100a0,0 0 0 1 0,0v27.770000457763672a5,5 0 0 1 -5,5h-90a5,5 0 0 1 -5,-5v-27.770000457763672a0,0 0 0 1 0,0z" style="stroke: rgb(0, 0, 0); fill: rgb(255, 255, 255); stroke-width: 0px;"/><text id="initializer-Constant_3" xml:space="preserve" x="6" y="12.6850004196167" style="font-family: -apple-system, BlinkMacSystemFont, &quot;Segoe WPC&quot;, &quot;Segoe UI&quot;, &quot;Ubuntu&quot;, &quot;Droid Sans&quot;, sans-serif, &quot;PingFang SC&quot;; font-size: 9px; font-weight: normal; text-rendering: geometricprecision;"><title>float32[64,32,3,3]</title><tspan style="font-weight: bold;">1</tspan><tspan>〈64×32×3×3〉</tspan></text><text id="initializer-Constant_2" xml:space="preserve" x="6" y="26.070000648498535" style="font-family: -apple-system, BlinkMacSystemFont, &quot;Segoe WPC&quot;, &quot;Segoe UI&quot;, &quot;Ubuntu&quot;, &quot;Droid Sans&quot;, sans-serif, &quot;PingFang SC&quot;; font-size: 9px; font-weight: normal; text-rendering: geometricprecision;"><title>float32[64]</title><tspan style="font-weight: bold;">2</tspan><tspan>〈64〉</tspan></text><line class="node" x1="0" x2="100" y1="0" y2="0" style="stroke: rgb(51, 51, 51); fill: none; stroke-width: 1px;"/></g><path class="node border" d="M5,0h90a5,5 0 0 1 5,5v43.750000953674316a5,5 0 0 1 -5,5h-90a5,5 0 0 1 -5,-5v-43.750000953674316a5,5 0 0 1 5,-5z" style="stroke: rgb(51, 51, 51); fill: none; stroke-width: 1px;"/></g></g><g id="node-name-Conv_5(Conv2d)" class="node graph-node" style="opacity: 1;" transform="translate(51.962501525878906,594.6549987792969)"><g transform="translate(-50,-26.875)"><g class="node-item node-item-type" transform="translate(0,0)"><path d="M5,0h90a5,5 0 0 1 5,5v15.980000495910645a0,0 0 0 1 0,0h-100a0,0 0 0 1 0,0v-15.980000495910645a5,5 0 0 1 5,-5z" style="stroke: rgb(0, 0, 0); fill: rgb(0, 0, 0); stroke-width: 0px;"/><text x="6" y="14.28499984741211" style="font-family: -apple-system, BlinkMacSystemFont, &quot;Segoe WPC&quot;, &quot;Segoe UI&quot;, &quot;Ubuntu&quot;, &quot;Droid Sans&quot;, sans-serif, &quot;PingFang SC&quot;; font-size: 11px; text-rendering: geometricprecision; fill: rgb(255, 255, 255);">FakeKPUConv2D</text><title>Conv_5(Conv2d)</title></g><g class="node-attribute" transform="translate(0,20.980000495910645)"><path d="M0,0h100a0,0 0 0 1 0,0v27.770000457763672a5,5 0 0 1 -5,5h-90a5,5 0 0 1 -5,-5v-27.770000457763672a0,0 0 0 1 0,0z" style="stroke: rgb(0, 0, 0); fill: rgb(255, 255, 255); stroke-width: 0px;"/><text id="initializer-Constant_1" xml:space="preserve" x="6" y="12.6850004196167" style="font-family: -apple-system, BlinkMacSystemFont, &quot;Segoe WPC&quot;, &quot;Segoe UI&quot;, &quot;Ubuntu&quot;, &quot;Droid Sans&quot;, sans-serif, &quot;PingFang SC&quot;; font-size: 9px; font-weight: normal; text-rendering: geometricprecision;"><title>float32[10,64,3,3]</title><tspan style="font-weight: bold;">1</tspan><tspan>〈10×64×3×3〉</tspan></text><text id="initializer-Constant_0" xml:space="preserve" x="6" y="26.070000648498535" style="font-family: -apple-system, BlinkMacSystemFont, &quot;Segoe WPC&quot;, &quot;Segoe UI&quot;, &quot;Ubuntu&quot;, &quot;Droid Sans&quot;, sans-serif, &quot;PingFang SC&quot;; font-size: 9px; font-weight: normal; text-rendering: geometricprecision;"><title>float32[10]</title><tspan style="font-weight: bold;">2</tspan><tspan>〈10〉</tspan></text><line class="node" x1="0" x2="100" y1="0" y2="0" style="stroke: rgb(51, 51, 51); fill: none; stroke-width: 1px;"/></g><path class="node border" d="M5,0h90a5,5 0 0 1 5,5v43.750000953674316a5,5 0 0 1 -5,5h-90a5,5 0 0 1 -5,-5v-43.750000953674316a5,5 0 0 1 5,-5z" style="stroke: rgb(51, 51, 51); fill: none; stroke-width: 1px;"/></g></g><g id="node-name-Pad" class="node graph-node" style="opacity: 1;" transform="translate(51.962501525878906,231.5999994277954)"><g transform="translate(-16.295000076293945,-10.489999771118164)"><g class="node-item node-item-type node-item-type-tensor" transform="translate(0,0)"><path d="M5,0h22.59000015258789a5,5 0 0 1 5,5v10.980000495910645a5,5 0 0 1 -5,5h-22.59000015258789a5,5 0 0 1 -5,-5v-10.980000495910645a5,5 0 0 1 5,-5z" style="stroke: rgb(0, 0, 0); fill: rgb(89, 66, 59); stroke-width: 0px;"/><text x="6" y="14.28499984741211" style="font-family: -apple-system, BlinkMacSystemFont, &quot;Segoe WPC&quot;, &quot;Segoe UI&quot;, &quot;Ubuntu&quot;, &quot;Droid Sans&quot;, sans-serif, &quot;PingFang SC&quot;; font-size: 11px; text-rendering: geometricprecision; fill: rgb(255, 255, 255);">Pad</text><title>Pad</title></g><path class="node border" d="M5,0h22.59000015258789a5,5 0 0 1 5,5v10.980000495910645a5,5 0 0 1 -5,5h-22.59000015258789a5,5 0 0 1 -5,-5v-10.980000495910645a5,5 0 0 1 5,-5z" style="stroke: rgb(51, 51, 51); fill: none; stroke-width: 1px;"/></g></g><g id="node-name-Pad_0" class="node graph-node" style="opacity: 1;" transform="translate(51.962501525878906,452.70999908447266)"><g transform="translate(-16.295000076293945,-10.489999771118164)"><g class="node-item node-item-type node-item-type-tensor" transform="translate(0,0)"><path d="M5,0h22.59000015258789a5,5 0 0 1 5,5v10.980000495910645a5,5 0 0 1 -5,5h-22.59000015258789a5,5 0 0 1 -5,-5v-10.980000495910645a5,5 0 0 1 5,-5z" style="stroke: rgb(0, 0, 0); fill: rgb(89, 66, 59); stroke-width: 0px;"/><text x="6" y="14.28499984741211" style="font-family: -apple-system, BlinkMacSystemFont, &quot;Segoe WPC&quot;, &quot;Segoe UI&quot;, &quot;Ubuntu&quot;, &quot;Droid Sans&quot;, sans-serif, &quot;PingFang SC&quot;; font-size: 11px; text-rendering: geometricprecision; fill: rgb(255, 255, 255);">Pad</text><title>Pad_0</title></g><path class="node border" d="M5,0h22.59000015258789a5,5 0 0 1 5,5v10.980000495910645a5,5 0 0 1 -5,5h-22.59000015258789a5,5 0 0 1 -5,-5v-10.980000495910645a5,5 0 0 1 5,-5z" style="stroke: rgb(51, 51, 51); fill: none; stroke-width: 1px;"/></g></g><g id="node-name-Pad_1" class="node graph-node" style="opacity: 1;" transform="translate(51.962501525878906,673.8199987411499)"><g transform="translate(-16.295000076293945,-10.489999771118164)"><g class="node-item node-item-type node-item-type-tensor" transform="translate(0,0)"><path d="M5,0h22.59000015258789a5,5 0 0 1 5,5v10.980000495910645a5,5 0 0 1 -5,5h-22.59000015258789a5,5 0 0 1 -5,-5v-10.980000495910645a5,5 0 0 1 5,-5z" style="stroke: rgb(0, 0, 0); fill: rgb(89, 66, 59); stroke-width: 0px;"/><text x="6" y="14.28499984741211" style="font-family: -apple-system, BlinkMacSystemFont, &quot;Segoe WPC&quot;, &quot;Segoe UI&quot;, &quot;Ubuntu&quot;, &quot;Droid Sans&quot;, sans-serif, &quot;PingFang SC&quot;; font-size: 11px; text-rendering: geometricprecision; fill: rgb(255, 255, 255);">Pad</text><title>Pad_1</title></g><path class="node border" d="M5,0h22.59000015258789a5,5 0 0 1 5,5v10.980000495910645a5,5 0 0 1 -5,5h-22.59000015258789a5,5 0 0 1 -5,-5v-10.980000495910645a5,5 0 0 1 5,-5z" style="stroke: rgb(51, 51, 51); fill: none; stroke-width: 1px;"/></g></g><g id="node-name-output_F" class="node graph-node" style="opacity: 1;" transform="translate(51.962501525878906,988.5399980545044)"><g transform="translate(-36.47999954223633,-10.489999771118164)"><g class="node-item node-item-type" transform="translate(0,0)"><path d="M5,0h62.959999084472656a5,5 0 0 1 5,5v10.980000495910645a5,5 0 0 1 -5,5h-62.959999084472656a5,5 0 0 1 -5,-5v-10.980000495910645a5,5 0 0 1 5,-5z" style="stroke: rgb(0, 0, 0); fill: rgb(0, 0, 0); stroke-width: 0px;"/><text x="6" y="14.28499984741211" style="font-family: -apple-system, BlinkMacSystemFont, &quot;Segoe WPC&quot;, &quot;Segoe UI&quot;, &quot;Ubuntu&quot;, &quot;Droid Sans&quot;, sans-serif, &quot;PingFang SC&quot;; font-size: 11px; text-rendering: geometricprecision; fill: rgb(255, 255, 255);">FusedUnary</text><title>output_F</title></g><path class="node border" d="M5,0h62.959999084472656a5,5 0 0 1 5,5v10.980000495910645a5,5 0 0 1 -5,5h-62.959999084472656a5,5 0 0 1 -5,-5v-10.980000495910645a5,5 0 0 1 5,-5z" style="stroke: rgb(51, 51, 51); fill: none; stroke-width: 1px;"/></g></g><g id="node-name-output_F_0" class="node graph-node" style="opacity: 1;" transform="translate(51.962501525878906,1177.6999979019165)"><g transform="translate(-36.47999954223633,-10.489999771118164)"><g class="node-item node-item-type" transform="translate(0,0)"><path d="M5,0h62.959999084472656a5,5 0 0 1 5,5v10.980000495910645a5,5 0 0 1 -5,5h-62.959999084472656a5,5 0 0 1 -5,-5v-10.980000495910645a5,5 0 0 1 5,-5z" style="stroke: rgb(0, 0, 0); fill: rgb(0, 0, 0); stroke-width: 0px;"/><text x="6" y="14.28499984741211" style="font-family: -apple-system, BlinkMacSystemFont, &quot;Segoe WPC&quot;, &quot;Segoe UI&quot;, &quot;Ubuntu&quot;, &quot;Droid Sans&quot;, sans-serif, &quot;PingFang SC&quot;; font-size: 11px; text-rendering: geometricprecision; fill: rgb(255, 255, 255);">FusedUnary</text><title>output_F_0</title></g><path class="node border" d="M5,0h62.959999084472656a5,5 0 0 1 5,5v10.980000495910645a5,5 0 0 1 -5,5h-62.959999084472656a5,5 0 0 1 -5,-5v-10.980000495910645a5,5 0 0 1 5,-5z" style="stroke: rgb(51, 51, 51); fill: none; stroke-width: 1px;"/></g></g><g id="node-name-output_F_1" class="node graph-node" style="opacity: 1;" transform="translate(51.962501525878906,168.81999969482422)"><g transform="translate(-36.47999954223633,-10.489999771118164)"><g class="node-item node-item-type" transform="translate(0,0)"><path d="M5,0h62.959999084472656a5,5 0 0 1 5,5v10.980000495910645a5,5 0 0 1 -5,5h-62.959999084472656a5,5 0 0 1 -5,-5v-10.980000495910645a5,5 0 0 1 5,-5z" style="stroke: rgb(0, 0, 0); fill: rgb(0, 0, 0); stroke-width: 0px;"/><text x="6" y="14.28499984741211" style="font-family: -apple-system, BlinkMacSystemFont, &quot;Segoe WPC&quot;, &quot;Segoe UI&quot;, &quot;Ubuntu&quot;, &quot;Droid Sans&quot;, sans-serif, &quot;PingFang SC&quot;; font-size: 11px; text-rendering: geometricprecision; fill: rgb(255, 255, 255);">FusedUnary</text><title>output_F_1</title></g><path class="node border" d="M5,0h62.959999084472656a5,5 0 0 1 5,5v10.980000495910645a5,5 0 0 1 -5,5h-62.959999084472656a5,5 0 0 1 -5,-5v-10.980000495910645a5,5 0 0 1 5,-5z" style="stroke: rgb(51, 51, 51); fill: none; stroke-width: 1px;"/></g></g><g id="node-name-output_F_2" class="node graph-node" style="opacity: 1;" transform="translate(51.962501525878906,389.92999935150146)"><g transform="translate(-36.47999954223633,-10.489999771118164)"><g class="node-item node-item-type" transform="translate(0,0)"><path d="M5,0h62.959999084472656a5,5 0 0 1 5,5v10.980000495910645a5,5 0 0 1 -5,5h-62.959999084472656a5,5 0 0 1 -5,-5v-10.980000495910645a5,5 0 0 1 5,-5z" style="stroke: rgb(0, 0, 0); fill: rgb(0, 0, 0); stroke-width: 0px;"/><text x="6" y="14.28499984741211" style="font-family: -apple-system, BlinkMacSystemFont, &quot;Segoe WPC&quot;, &quot;Segoe UI&quot;, &quot;Ubuntu&quot;, &quot;Droid Sans&quot;, sans-serif, &quot;PingFang SC&quot;; font-size: 11px; text-rendering: geometricprecision; fill: rgb(255, 255, 255);">FusedUnary</text><title>output_F_2</title></g><path class="node border" d="M5,0h62.959999084472656a5,5 0 0 1 5,5v10.980000495910645a5,5 0 0 1 -5,5h-62.959999084472656a5,5 0 0 1 -5,-5v-10.980000495910645a5,5 0 0 1 5,-5z" style="stroke: rgb(51, 51, 51); fill: none; stroke-width: 1px;"/></g></g><g id="input-name-img" class="node graph-input" style="opacity: 1;" transform="matrix(1, 0, 0, 1, 51.9625, 10.49)"><g transform="translate(-16.212499618530273,-10.489999771118164)"><g class="node-item graph-item-input" transform="translate(0,0)"><path d="M5,0h22.424999237060547a5,5 0 0 1 5,5v10.980000495910645a5,5 0 0 1 -5,5h-22.424999237060547a5,5 0 0 1 -5,-5v-10.980000495910645a5,5 0 0 1 5,-5z" style="stroke: rgb(0, 0, 0); fill: rgb(238, 238, 238); stroke-width: 0px;"/><text x="6" y="14.28499984741211" style="font-family: -apple-system, BlinkMacSystemFont, &quot;Segoe WPC&quot;, &quot;Segoe UI&quot;, &quot;Ubuntu&quot;, &quot;Droid Sans&quot;, sans-serif, &quot;PingFang SC&quot;; font-size: 11px; text-rendering: geometricprecision;">img</text><title>float32[1,1,28,28]</title></g><path class="node border" d="M5,0h22.424999237060547a5,5 0 0 1 5,5v10.980000495910645a5,5 0 0 1 -5,5h-22.424999237060547a5,5 0 0 1 -5,-5v-10.980000495910645a5,5 0 0 1 5,-5z" style="stroke: rgb(51, 51, 51); fill: none; stroke-width: 1px;"/></g></g><g class="node" style="opacity: 1;" transform="translate(51.962501525878906,1240.4799976348877)"><g transform="translate(-17.807498931884766,-10.489999771118164)"><g class="node-item graph-item-output" transform="translate(0,0)"><path d="M5,0h25.614999771118164a5,5 0 0 1 5,5v10.980000495910645a5,5 0 0 1 -5,5h-25.614999771118164a5,5 0 0 1 -5,-5v-10.980000495910645a5,5 0 0 1 5,-5z" style="stroke: rgb(0, 0, 0); fill: rgb(238, 238, 238); stroke-width: 0px;"/><text x="6" y="14.28499984741211" style="font-family: -apple-system, BlinkMacSystemFont, &quot;Segoe WPC&quot;, &quot;Segoe UI&quot;, &quot;Ubuntu&quot;, &quot;Droid Sans&quot;, sans-serif, &quot;PingFang SC&quot;; font-size: 11px; text-rendering: geometricprecision;">digit</text><title>float32[1,10]</title></g><path class="node border" d="M5,0h25.614999771118164a5,5 0 0 1 5,5v10.980000495910645a5,5 0 0 1 -5,5h-25.614999771118164a5,5 0 0 1 -5,-5v-10.980000495910645a5,5 0 0 1 5,-5z" style="stroke: rgb(51, 51, 51); fill: none; stroke-width: 1px;"/></g></g></g></g></svg>